<?xml version="1.0" encoding="UTF-8" standalone="no"?>
<svg
   xmlns:dc="http://purl.org/dc/elements/1.1/"
   xmlns:cc="http://creativecommons.org/ns#"
   xmlns:rdf="http://www.w3.org/1999/02/22-rdf-syntax-ns#"
   xmlns:svg="http://www.w3.org/2000/svg"
   xmlns="http://www.w3.org/2000/svg"
   xmlns:sodipodi="http://sodipodi.sourceforge.net/DTD/sodipodi-0.dtd"
   xmlns:inkscape="http://www.inkscape.org/namespaces/inkscape"
   width="100%"
   height="100%"
   viewBox="0 0 448 512"
   version="1.1"
   xml:space="preserve"
   style="fill-rule:evenodd;clip-rule:evenodd;stroke-linejoin:round;stroke-miterlimit:2;"
   id="svg4"
   sodipodi:docname="lock.svg"
   inkscape:version="1.0.1 (3bc2e813f5, 2020-09-07)"><metadata
   id="metadata10"><rdf:RDF><cc:Work
       rdf:about=""><dc:format>image/svg+xml</dc:format><dc:type
         rdf:resource="http://purl.org/dc/dcmitype/StillImage" /><dc:title></dc:title></cc:Work></rdf:RDF></metadata><defs
   id="defs8" /><sodipodi:namedview
   pagecolor="#ffffff"
   bordercolor="#666666"
   borderopacity="1"
   objecttolerance="10"
   gridtolerance="10"
   guidetolerance="10"
   inkscape:pageopacity="0"
   inkscape:pageshadow="2"
   inkscape:window-width="1690"
   inkscape:window-height="1104"
   id="namedview6"
   showgrid="false"
   inkscape:zoom="1.96875"
   inkscape:cx="106.92063"
   inkscape:cy="256"
   inkscape:window-x="2367"
   inkscape:window-y="53"
   inkscape:window-maximized="0"
   inkscape:current-layer="svg4" />
    <path
   d="M400,224L376,224L376,152C376,68.2 307.8,0 224,0C140.2,0 72,68.2 72,152L72,224L48,224C21.5,224 0,245.5 0,272L0,464C0,490.5 21.5,512 48,512L400,512C426.5,512 448,490.5 448,464L448,272C448,245.5 426.5,224 400,224ZM296,224L152,224L152,152C152,112.3 184.3,80 224,80C263.7,80 296,112.3 296,152L296,224Z"
   style="fill:#cccc66;fill-rule:nonzero;fill-opacity:1"
   id="path2" />
</svg>
