<?xml version="1.0" encoding="UTF-8" standalone="no"?>
<svg
   xmlns:serif="http://www.serif.com/"
   xmlns:dc="http://purl.org/dc/elements/1.1/"
   xmlns:cc="http://creativecommons.org/ns#"
   xmlns:rdf="http://www.w3.org/1999/02/22-rdf-syntax-ns#"
   xmlns:svg="http://www.w3.org/2000/svg"
   xmlns="http://www.w3.org/2000/svg"
   xmlns:sodipodi="http://sodipodi.sourceforge.net/DTD/sodipodi-0.dtd"
   xmlns:inkscape="http://www.inkscape.org/namespaces/inkscape"
   width="247"
   height="33"
   viewBox="0 0 52117 924"
   version="1.1"
   xml:space="preserve"
   style="clip-rule:evenodd;fill-rule:evenodd;stroke-linejoin:round;stroke-miterlimit:2"
   id="svg88"
   sodipodi:docname="tt_logo.svg"
   inkscape:version="0.92.4 (5da689c313, 2019-01-14)"><metadata
   id="metadata94"><rdf:RDF><cc:Work
       rdf:about=""><dc:format>image/svg+xml</dc:format><dc:type
         rdf:resource="http://purl.org/dc/dcmitype/StillImage" /><dc:title></dc:title></cc:Work></rdf:RDF></metadata><defs
   id="defs92" /><sodipodi:namedview
   pagecolor="#ffffff"
   bordercolor="#666666"
   borderopacity="1"
   objecttolerance="10"
   gridtolerance="10"
   guidetolerance="10"
   inkscape:pageopacity="0"
   inkscape:pageshadow="2"
   inkscape:window-width="1920"
   inkscape:window-height="1017"
   id="namedview90"
   showgrid="false"
   units="px"
   inkscape:zoom="4.2227874"
   inkscape:cx="151.36445"
   inkscape:cy="-14.936289"
   inkscape:window-x="-8"
   inkscape:window-y="-8"
   inkscape:window-maximized="1"
   inkscape:current-layer="svg88" />
    <g
   id="Artboard1"
   transform="translate(-0.89170449,6751.835)">
        <rect
   x="-0.57700002"
   y="-1.793"
   width="210.668"
   height="27.806"
   style="fill:none"
   id="rect2" />
        <g
   transform="translate(0.423027,0.207061)"
   id="g6">
            <rect
   x="90.832001"
   y="3.5710001"
   width="0.63499999"
   height="20.305"
   style="fill:#006699"
   id="rect4" />
        </g>
        <g
   id="online-agency"
   serif:id="online agency"
   transform="translate(0.423027,0.207061)">
            <path
   d="m 115.618,12.478 c 0,0.075 -0.016,0.15 -0.049,0.227 -0.033,0.077 -0.076,0.152 -0.129,0.224 -0.052,0.073 -0.111,0.141 -0.174,0.205 -0.064,0.064 -0.129,0.115 -0.195,0.155 -0.154,0.101 -0.372,0.19 -0.656,0.267 -0.283,0.077 -0.634,0.115 -1.051,0.115 -0.334,0 -0.671,-0.043 -1.009,-0.128 -0.339,-0.086 -0.664,-0.228 -0.976,-0.426 0.101,0.154 0.166,0.301 0.195,0.442 0.028,0.141 0.043,0.308 0.043,0.501 0,0.347 -0.088,0.716 -0.264,1.108 -0.172,0.395 -0.394,0.762 -0.666,1.101 -0.273,0.338 -0.56,0.619 -0.864,0.843 -0.171,0.128 -0.359,0.239 -0.563,0.333 -0.205,0.095 -0.419,0.172 -0.643,0.231 -0.224,0.06 -0.457,0.103 -0.699,0.132 -0.242,0.029 -0.486,0.043 -0.732,0.043 -0.171,0 -0.338,-0.055 -0.501,-0.165 -0.162,-0.11 -0.307,-0.244 -0.435,-0.402 -0.127,-0.158 -0.23,-0.328 -0.307,-0.508 -0.076,-0.18 -0.115,-0.343 -0.115,-0.488 0,-0.356 0.047,-0.697 0.142,-1.025 0.094,-0.327 0.222,-0.644 0.382,-0.949 0.161,-0.306 0.346,-0.604 0.557,-0.897 0.211,-0.292 0.435,-0.583 0.673,-0.873 0.132,-0.163 0.282,-0.322 0.451,-0.478 0.17,-0.156 0.347,-0.296 0.531,-0.419 0.185,-0.123 0.371,-0.223 0.56,-0.3 0.189,-0.077 0.37,-0.115 0.541,-0.115 0.141,0 0.262,0.02 0.363,0.059 0.101,0.04 0.196,0.096 0.286,0.168 0.091,0.073 0.183,0.164 0.277,0.274 0.095,0.11 0.204,0.233 0.327,0.369 0.039,0.04 0.148,0.098 0.326,0.175 0.178,0.077 0.389,0.151 0.633,0.224 0.244,0.072 0.5,0.136 0.768,0.191 0.268,0.055 0.512,0.082 0.732,0.082 0.22,0 0.422,-0.007 0.606,-0.023 0.185,-0.015 0.364,-0.04 0.538,-0.075 0.173,-0.036 0.346,-0.084 0.517,-0.145 0.172,-0.062 0.356,-0.137 0.554,-0.225 0.018,0.066 0.026,0.123 0.026,0.172 z m -4.924,1.582 c 0.004,-0.123 -0.005,-0.263 -0.027,-0.419 -0.022,-0.156 -0.06,-0.303 -0.115,-0.441 -0.055,-0.139 -0.128,-0.252 -0.218,-0.34 -0.09,-0.088 -0.201,-0.123 -0.333,-0.105 -0.202,-0.079 -0.369,-0.163 -0.501,-0.251 -0.132,-0.088 -0.233,-0.132 -0.303,-0.132 -0.053,0 -0.11,0.017 -0.171,0.05 -0.062,0.033 -0.126,0.078 -0.192,0.135 -0.066,0.057 -0.133,0.124 -0.201,0.201 -0.068,0.077 -0.135,0.157 -0.201,0.241 -0.132,0.171 -0.254,0.327 -0.366,0.468 -0.112,0.14 -0.217,0.28 -0.316,0.418 -0.099,0.139 -0.195,0.284 -0.287,0.435 -0.092,0.152 -0.184,0.322 -0.277,0.511 -0.039,0.08 -0.074,0.174 -0.105,0.284 -0.031,0.11 -0.057,0.223 -0.079,0.339 -0.022,0.117 -0.039,0.233 -0.05,0.35 -0.011,0.116 -0.016,0.221 -0.016,0.313 0,0.057 0.019,0.126 0.059,0.208 0.04,0.081 0.091,0.16 0.155,0.237 0.064,0.077 0.136,0.142 0.218,0.194 0.081,0.053 0.161,0.08 0.24,0.08 0.224,0 0.415,-0.01 0.574,-0.03 0.158,-0.02 0.304,-0.055 0.438,-0.106 0.134,-0.05 0.269,-0.119 0.406,-0.207 0.136,-0.088 0.294,-0.202 0.474,-0.343 0.088,-0.066 0.175,-0.143 0.261,-0.231 0.085,-0.088 0.17,-0.181 0.253,-0.28 0.084,-0.099 0.163,-0.2 0.238,-0.303 0.075,-0.104 0.145,-0.206 0.211,-0.307 0.044,-0.066 0.081,-0.147 0.112,-0.244 0.031,-0.096 0.055,-0.193 0.072,-0.29 0.018,-0.097 0.03,-0.184 0.037,-0.264 0.006,-0.079 0.01,-0.136 0.01,-0.171 z"
   style="fill:#006699;fill-rule:nonzero"
   id="path8"
   inkscape:connector-curvature="0" />
        </g>
        <g
   transform="translate(0.423027,0.207061)"
   id="g13">
            <path
   d="m 125.554,13.289 c 0,0.083 -0.015,0.168 -0.043,0.254 -0.029,0.085 -0.064,0.171 -0.106,0.257 -0.042,0.085 -0.089,0.169 -0.142,0.25 -0.052,0.081 -0.103,0.16 -0.151,0.234 -0.128,0.198 -0.277,0.399 -0.448,0.603 -0.172,0.205 -0.355,0.404 -0.551,0.597 -0.196,0.193 -0.397,0.376 -0.603,0.547 -0.207,0.172 -0.409,0.323 -0.607,0.455 -0.158,0.106 -0.308,0.205 -0.451,0.297 -0.143,0.092 -0.287,0.171 -0.432,0.237 -0.145,0.066 -0.297,0.119 -0.455,0.158 -0.158,0.04 -0.332,0.06 -0.521,0.06 -0.365,0 -0.661,-0.093 -0.89,-0.277 -0.114,-0.092 -0.214,-0.212 -0.3,-0.359 -0.086,-0.148 -0.16,-0.311 -0.224,-0.492 -0.064,-0.18 -0.119,-0.371 -0.165,-0.573 -0.046,-0.202 -0.084,-0.402 -0.115,-0.6 -0.04,-0.246 -0.077,-0.467 -0.112,-0.663 -0.035,-0.195 -0.076,-0.36 -0.122,-0.494 -0.046,-0.134 -0.102,-0.237 -0.168,-0.31 -0.066,-0.073 -0.152,-0.109 -0.257,-0.109 -0.084,0 -0.163,0.009 -0.238,0.027 -0.075,0.017 -0.153,0.052 -0.234,0.105 -0.081,0.053 -0.17,0.128 -0.267,0.224 -0.097,0.097 -0.21,0.224 -0.339,0.383 -0.13,0.158 -0.278,0.351 -0.445,0.58 -0.167,0.228 -0.363,0.501 -0.587,0.817 -0.11,0.154 -0.24,0.323 -0.389,0.508 -0.15,0.185 -0.302,0.36 -0.458,0.527 -0.156,0.167 -0.309,0.315 -0.459,0.442 -0.149,0.128 -0.281,0.209 -0.395,0.244 -0.387,-0.084 -0.58,-0.565 -0.58,-1.444 0,-0.233 0.026,-0.587 0.079,-1.061 0.026,-0.216 0.057,-0.441 0.092,-0.676 0.035,-0.235 0.079,-0.47 0.132,-0.705 0.053,-0.236 0.113,-0.464 0.181,-0.686 0.068,-0.222 0.149,-0.427 0.241,-0.616 0.044,-0.088 0.09,-0.158 0.138,-0.208 0.049,-0.051 0.098,-0.088 0.149,-0.112 0.05,-0.024 0.103,-0.04 0.158,-0.046 0.055,-0.007 0.111,-0.01 0.168,-0.01 0.07,0 0.133,0.048 0.188,0.145 0.055,0.096 0.082,0.231 0.082,0.402 0,0.105 -0.008,0.204 -0.026,0.297 -0.018,0.092 -0.042,0.186 -0.073,0.283 -0.03,0.097 -0.063,0.201 -0.098,0.313 -0.036,0.112 -0.071,0.241 -0.106,0.386 -0.026,0.119 -0.056,0.25 -0.089,0.395 -0.033,0.146 -0.064,0.293 -0.092,0.442 -0.029,0.15 -0.053,0.296 -0.073,0.439 -0.019,0.142 -0.029,0.271 -0.029,0.385 0,0.079 0.013,0.161 0.039,0.244 0.123,-0.013 0.325,-0.198 0.607,-0.554 0.145,-0.18 0.304,-0.378 0.478,-0.593 0.173,-0.215 0.361,-0.453 0.563,-0.712 0.15,-0.193 0.298,-0.374 0.445,-0.541 0.148,-0.167 0.3,-0.313 0.459,-0.438 0.158,-0.125 0.326,-0.224 0.504,-0.297 0.178,-0.072 0.375,-0.108 0.59,-0.108 0.229,0 0.419,0.049 0.57,0.148 0.152,0.099 0.274,0.235 0.366,0.409 0.092,0.173 0.164,0.381 0.214,0.623 0.051,0.241 0.092,0.507 0.122,0.797 0.027,0.247 0.052,0.49 0.076,0.732 0.024,0.242 0.072,0.458 0.142,0.65 0.07,0.191 0.171,0.346 0.303,0.464 0.132,0.119 0.321,0.178 0.567,0.178 0.189,0 0.387,-0.044 0.594,-0.131 0.206,-0.088 0.424,-0.21 0.652,-0.366 0.229,-0.156 0.465,-0.34 0.709,-0.551 0.244,-0.211 0.495,-0.442 0.755,-0.692 0.101,-0.097 0.212,-0.219 0.333,-0.366 0.121,-0.147 0.239,-0.289 0.356,-0.425 0.116,-0.136 0.225,-0.253 0.326,-0.35 0.101,-0.096 0.182,-0.145 0.244,-0.145 0.026,0 0.069,0.013 0.129,0.04 0.059,0.026 0.089,0.07 0.089,0.132 z"
   style="fill:#006699;fill-rule:nonzero"
   id="path11"
   inkscape:connector-curvature="0" />
        </g>
        <g
   transform="translate(0.423027,0.207061)"
   id="g17">
            <path
   d="m 130.993,14.007 c 0,0.207 -0.126,0.53 -0.376,0.969 -0.049,0.084 -0.116,0.184 -0.201,0.3 -0.086,0.117 -0.182,0.238 -0.287,0.363 -0.106,0.125 -0.215,0.253 -0.33,0.382 -0.114,0.13 -0.226,0.25 -0.336,0.36 -0.167,0.167 -0.35,0.329 -0.55,0.488 -0.2,0.158 -0.411,0.301 -0.633,0.428 -0.222,0.128 -0.451,0.23 -0.686,0.307 -0.235,0.077 -0.467,0.115 -0.696,0.115 -0.303,0 -0.586,-0.055 -0.85,-0.165 -0.264,-0.11 -0.493,-0.279 -0.689,-0.507 -0.196,-0.229 -0.349,-0.516 -0.461,-0.861 -0.113,-0.345 -0.169,-0.752 -0.169,-1.223 0,-0.321 0.016,-0.656 0.047,-1.005 0.03,-0.35 0.07,-0.7 0.118,-1.052 0.049,-0.351 0.102,-0.7 0.162,-1.045 0.059,-0.345 0.12,-0.678 0.181,-0.998 0.04,-0.22 0.074,-0.4 0.102,-0.541 0.029,-0.141 0.054,-0.27 0.076,-0.389 0.022,-0.119 0.042,-0.238 0.059,-0.359 0.018,-0.121 0.04,-0.272 0.066,-0.452 0.018,-0.123 0.034,-0.232 0.05,-0.326 0.015,-0.095 0.027,-0.173 0.036,-0.234 0.018,-0.106 0.047,-0.207 0.089,-0.304 0.042,-0.096 0.095,-0.182 0.158,-0.257 0.064,-0.074 0.138,-0.134 0.221,-0.178 0.084,-0.044 0.176,-0.066 0.277,-0.066 0.211,0 0.367,0.099 0.468,0.297 -0.026,0.136 -0.054,0.267 -0.082,0.392 -0.029,0.126 -0.054,0.259 -0.076,0.399 -0.11,0.554 -0.2,1.002 -0.27,1.345 -0.071,0.343 -0.121,0.585 -0.152,0.725 -0.053,0.277 -0.109,0.576 -0.168,0.897 -0.059,0.321 -0.114,0.648 -0.165,0.982 -0.051,0.334 -0.091,0.664 -0.122,0.989 -0.031,0.325 -0.046,0.629 -0.046,0.91 0,0.303 0.024,0.579 0.072,0.827 0.049,0.249 0.127,0.461 0.234,0.637 0.108,0.175 0.247,0.312 0.416,0.408 0.169,0.097 0.374,0.145 0.616,0.145 0.264,0 0.523,-0.058 0.778,-0.174 0.255,-0.117 0.5,-0.265 0.735,-0.445 0.235,-0.181 0.458,-0.379 0.669,-0.597 0.211,-0.218 0.405,-0.427 0.581,-0.63 0.14,-0.167 0.263,-0.311 0.369,-0.431 0.105,-0.121 0.193,-0.223 0.263,-0.307 0.058,-0.066 0.122,-0.134 0.195,-0.204 0.072,-0.071 0.14,-0.106 0.201,-0.106 0.07,0 0.106,0.064 0.106,0.191 z"
   style="fill:#006699;fill-rule:nonzero"
   id="path15"
   inkscape:connector-curvature="0" />
        </g>
        <g
   transform="translate(0.423027,0.207061)"
   id="g21">
            <path
   d="m 133.293,8.351 c 0,0.285 -0.074,0.529 -0.224,0.732 -0.145,0.202 -0.358,0.303 -0.639,0.303 -0.176,0 -0.372,-0.027 -0.587,-0.079 -0.211,-0.053 -0.316,-0.139 -0.316,-0.257 0,-0.216 0.067,-0.421 0.201,-0.617 0.134,-0.195 0.295,-0.355 0.484,-0.478 0.15,-0.088 0.249,-0.132 0.297,-0.132 0.25,0 0.444,0.034 0.58,0.103 0.136,0.068 0.204,0.209 0.204,0.425 z m 4.319,5.36 c 0.004,0.092 -0.037,0.217 -0.122,0.375 -0.086,0.159 -0.203,0.338 -0.35,0.538 -0.147,0.2 -0.318,0.414 -0.514,0.643 -0.196,0.228 -0.401,0.457 -0.616,0.685 -0.247,0.264 -0.507,0.518 -0.782,0.762 -0.274,0.244 -0.568,0.48 -0.88,0.708 -0.615,0.457 -1.164,0.686 -1.648,0.686 -0.532,0 -0.945,-0.178 -1.239,-0.534 -0.295,-0.36 -0.495,-0.796 -0.6,-1.305 -0.106,-0.506 -0.159,-1.027 -0.159,-1.563 0,-0.224 0.027,-0.573 0.08,-1.048 0.026,-0.237 0.052,-0.442 0.079,-0.613 0.026,-0.172 0.055,-0.31 0.085,-0.416 0.062,-0.206 0.192,-0.386 0.389,-0.54 0.203,-0.163 0.413,-0.244 0.633,-0.244 0.119,0 0.178,0.112 0.178,0.336 0,0.15 -0.014,0.319 -0.043,0.508 -0.028,0.189 -0.058,0.376 -0.089,0.56 -0.057,0.347 -0.098,0.658 -0.125,0.933 -0.026,0.275 -0.039,0.513 -0.039,0.715 0,0.444 0.061,0.893 0.184,1.345 0.123,0.462 0.345,0.692 0.666,0.692 0.325,0 0.703,-0.118 1.134,-0.356 0.215,-0.123 0.431,-0.259 0.646,-0.408 0.215,-0.15 0.431,-0.317 0.646,-0.501 0.22,-0.185 0.431,-0.371 0.633,-0.557 0.202,-0.187 0.4,-0.379 0.593,-0.577 0.194,-0.198 0.367,-0.383 0.521,-0.554 0.154,-0.171 0.288,-0.33 0.402,-0.475 0.005,-0.009 0.012,-0.023 0.023,-0.043 0.011,-0.019 0.024,-0.039 0.037,-0.059 0.013,-0.02 0.026,-0.036 0.039,-0.049 0.013,-0.014 0.027,-0.018 0.04,-0.014 0.061,0 0.108,0.049 0.138,0.146 0.04,0.092 0.06,0.167 0.06,0.224 z"
   style="fill:#006699;fill-rule:nonzero"
   id="path19"
   inkscape:connector-curvature="0" />
        </g>
        <g
   transform="translate(0.423027,0.207061)"
   id="g25">
            <path
   d="m 148.074,13.289 c 0,0.083 -0.014,0.168 -0.043,0.254 -0.028,0.085 -0.063,0.171 -0.105,0.257 -0.042,0.085 -0.089,0.169 -0.142,0.25 -0.053,0.081 -0.103,0.16 -0.151,0.234 -0.128,0.198 -0.277,0.399 -0.449,0.603 -0.171,0.205 -0.355,0.404 -0.55,0.597 -0.196,0.193 -0.397,0.376 -0.603,0.547 -0.207,0.172 -0.409,0.323 -0.607,0.455 -0.158,0.106 -0.309,0.205 -0.452,0.297 -0.142,0.092 -0.286,0.171 -0.431,0.237 -0.145,0.066 -0.297,0.119 -0.455,0.158 -0.159,0.04 -0.332,0.06 -0.521,0.06 -0.365,0 -0.662,-0.093 -0.89,-0.277 -0.114,-0.092 -0.214,-0.212 -0.3,-0.359 -0.086,-0.148 -0.161,-0.311 -0.224,-0.492 -0.064,-0.18 -0.119,-0.371 -0.165,-0.573 -0.046,-0.202 -0.085,-0.402 -0.115,-0.6 -0.04,-0.246 -0.077,-0.467 -0.113,-0.663 -0.035,-0.195 -0.075,-0.36 -0.122,-0.494 -0.046,-0.134 -0.102,-0.237 -0.168,-0.31 -0.066,-0.073 -0.151,-0.109 -0.257,-0.109 -0.083,0 -0.162,0.009 -0.237,0.027 -0.075,0.017 -0.153,0.052 -0.234,0.105 -0.081,0.053 -0.17,0.128 -0.267,0.224 -0.097,0.097 -0.21,0.224 -0.34,0.383 -0.129,0.158 -0.278,0.351 -0.445,0.58 -0.167,0.228 -0.362,0.501 -0.586,0.817 -0.11,0.154 -0.24,0.323 -0.389,0.508 -0.15,0.185 -0.303,0.36 -0.459,0.527 -0.156,0.167 -0.308,0.315 -0.458,0.442 -0.149,0.128 -0.281,0.209 -0.395,0.244 -0.387,-0.084 -0.581,-0.565 -0.581,-1.444 0,-0.233 0.027,-0.587 0.08,-1.061 0.026,-0.216 0.057,-0.441 0.092,-0.676 0.035,-0.235 0.079,-0.47 0.132,-0.705 0.052,-0.236 0.113,-0.464 0.181,-0.686 0.068,-0.222 0.148,-0.427 0.241,-0.616 0.044,-0.088 0.09,-0.158 0.138,-0.208 0.048,-0.051 0.098,-0.088 0.148,-0.112 0.051,-0.024 0.104,-0.04 0.159,-0.046 0.055,-0.007 0.111,-0.01 0.168,-0.01 0.07,0 0.133,0.048 0.188,0.145 0.055,0.096 0.082,0.231 0.082,0.402 0,0.105 -0.009,0.204 -0.026,0.297 -0.018,0.092 -0.042,0.186 -0.073,0.283 -0.031,0.097 -0.064,0.201 -0.099,0.313 -0.035,0.112 -0.07,0.241 -0.105,0.386 -0.027,0.119 -0.056,0.25 -0.089,0.395 -0.033,0.146 -0.064,0.293 -0.092,0.442 -0.029,0.15 -0.053,0.296 -0.073,0.439 -0.02,0.142 -0.03,0.271 -0.03,0.385 0,0.079 0.014,0.161 0.04,0.244 0.123,-0.013 0.325,-0.198 0.606,-0.554 0.145,-0.18 0.305,-0.378 0.478,-0.593 0.174,-0.215 0.362,-0.453 0.564,-0.712 0.15,-0.193 0.298,-0.374 0.445,-0.541 0.147,-0.167 0.3,-0.313 0.458,-0.438 0.159,-0.125 0.327,-0.224 0.505,-0.297 0.178,-0.072 0.374,-0.108 0.59,-0.108 0.228,0 0.418,0.049 0.57,0.148 0.152,0.099 0.274,0.235 0.366,0.409 0.092,0.173 0.164,0.381 0.214,0.623 0.051,0.241 0.091,0.507 0.122,0.797 0.026,0.247 0.052,0.49 0.076,0.732 0.024,0.242 0.071,0.458 0.142,0.65 0.07,0.191 0.171,0.346 0.303,0.464 0.132,0.119 0.321,0.178 0.567,0.178 0.189,0 0.387,-0.044 0.593,-0.131 0.207,-0.088 0.424,-0.21 0.653,-0.366 0.228,-0.156 0.465,-0.34 0.709,-0.551 0.244,-0.211 0.495,-0.442 0.754,-0.692 0.102,-0.097 0.213,-0.219 0.333,-0.366 0.121,-0.147 0.24,-0.289 0.356,-0.425 0.117,-0.136 0.226,-0.253 0.327,-0.35 0.101,-0.096 0.182,-0.145 0.244,-0.145 0.026,0 0.069,0.013 0.128,0.04 0.06,0.026 0.089,0.07 0.089,0.132 z"
   style="fill:#006699;fill-rule:nonzero"
   id="path23"
   inkscape:connector-curvature="0" />
        </g>
        <g
   transform="translate(0.423027,0.207061)"
   id="g29">
            <path
   d="m 155.063,13.454 c 0,0.065 -0.049,0.182 -0.146,0.349 -0.228,0.33 -0.484,0.659 -0.768,0.989 -0.283,0.329 -0.584,0.643 -0.903,0.939 -0.318,0.297 -0.65,0.574 -0.995,0.831 -0.345,0.257 -0.694,0.479 -1.045,0.666 -0.352,0.187 -0.702,0.331 -1.052,0.432 -0.349,0.101 -0.686,0.149 -1.012,0.145 -0.703,0 -1.249,-0.205 -1.638,-0.613 -0.389,-0.409 -0.583,-1.027 -0.583,-1.853 0,-0.69 0.106,-1.36 0.319,-2.011 0.213,-0.65 0.577,-1.277 1.091,-1.879 0.097,-0.105 0.206,-0.206 0.327,-0.303 0.121,-0.097 0.248,-0.182 0.382,-0.257 0.134,-0.075 0.273,-0.134 0.415,-0.178 0.143,-0.044 0.287,-0.07 0.432,-0.079 0.035,0 0.084,0.004 0.145,0.013 0.062,0.009 0.128,0.024 0.198,0.046 0.07,0.022 0.139,0.05 0.204,0.083 0.066,0.033 0.119,0.073 0.159,0.122 0.123,0.14 0.221,0.285 0.293,0.435 0.073,0.149 0.113,0.314 0.122,0.494 0.009,0.202 -0.014,0.401 -0.069,0.597 -0.055,0.195 -0.147,0.395 -0.277,0.6 -0.13,0.204 -0.3,0.415 -0.511,0.633 -0.211,0.217 -0.466,0.451 -0.765,0.702 -0.189,0.158 -0.399,0.333 -0.629,0.524 -0.231,0.191 -0.509,0.392 -0.834,0.603 0,0.426 0.128,0.751 0.385,0.973 0.257,0.221 0.61,0.332 1.058,0.332 0.251,0 0.504,-0.033 0.759,-0.098 0.255,-0.066 0.505,-0.153 0.751,-0.261 0.246,-0.108 0.485,-0.231 0.715,-0.369 0.231,-0.138 0.448,-0.28 0.65,-0.425 0.373,-0.273 0.712,-0.544 1.015,-0.814 0.303,-0.271 0.604,-0.555 0.903,-0.854 l 0.356,-0.356 c 0.216,-0.189 0.372,-0.284 0.468,-0.284 0.053,0 0.08,0.042 0.08,0.126 z m -5.037,-1.312 c -0.005,-0.066 -0.015,-0.131 -0.03,-0.195 -0.015,-0.064 -0.038,-0.12 -0.069,-0.168 -0.031,-0.048 -0.066,-0.087 -0.106,-0.115 -0.039,-0.029 -0.085,-0.043 -0.138,-0.043 -0.233,0.013 -0.466,0.155 -0.699,0.425 -0.233,0.27 -0.453,0.627 -0.659,1.071 -0.049,0.097 -0.091,0.206 -0.129,0.327 -0.037,0.121 -0.072,0.244 -0.105,0.369 -0.033,0.125 -0.062,0.249 -0.086,0.372 -0.024,0.123 -0.045,0.233 -0.063,0.33 0.229,-0.171 0.44,-0.33 0.633,-0.475 0.194,-0.145 0.374,-0.294 0.541,-0.448 0.105,-0.097 0.213,-0.201 0.323,-0.313 0.11,-0.112 0.21,-0.23 0.3,-0.353 0.09,-0.123 0.161,-0.25 0.214,-0.382 0.053,-0.132 0.077,-0.266 0.073,-0.402 z"
   style="fill:#006699;fill-rule:nonzero"
   id="path27"
   inkscape:connector-curvature="0" />
        </g>
        <g
   transform="translate(0.423027,0.207061)"
   id="g33">
            <path
   d="m 169.25,13.513 c 0,0.053 -0.007,0.115 -0.02,0.188 -0.013,0.072 -0.032,0.146 -0.056,0.221 -0.024,0.074 -0.05,0.146 -0.079,0.214 -0.028,0.068 -0.058,0.122 -0.089,0.161 -0.026,0.036 -0.065,0.083 -0.115,0.142 -0.051,0.059 -0.107,0.124 -0.168,0.195 -0.062,0.07 -0.129,0.144 -0.201,0.22 -0.073,0.077 -0.149,0.151 -0.228,0.221 -0.272,0.251 -0.539,0.494 -0.801,0.729 -0.261,0.235 -0.531,0.443 -0.808,0.623 -0.276,0.18 -0.565,0.324 -0.866,0.432 -0.302,0.107 -0.628,0.159 -0.979,0.155 -0.163,0 -0.327,-0.03 -0.492,-0.089 -0.164,-0.06 -0.319,-0.144 -0.464,-0.254 -0.145,-0.11 -0.271,-0.242 -0.376,-0.396 -0.106,-0.154 -0.18,-0.323 -0.224,-0.507 -0.128,0.131 -0.262,0.269 -0.403,0.412 -0.14,0.142 -0.286,0.286 -0.438,0.431 -0.152,0.145 -0.309,0.286 -0.471,0.422 -0.163,0.137 -0.33,0.262 -0.501,0.376 -0.097,0.062 -0.212,0.128 -0.346,0.198 -0.135,0.07 -0.275,0.135 -0.422,0.194 -0.148,0.06 -0.295,0.108 -0.442,0.145 -0.147,0.038 -0.28,0.057 -0.399,0.057 -0.18,0 -0.335,-0.057 -0.465,-0.169 -0.129,-0.112 -0.237,-0.249 -0.323,-0.412 -0.086,-0.162 -0.149,-0.336 -0.191,-0.52 -0.042,-0.185 -0.063,-0.35 -0.063,-0.495 0,-0.29 0.042,-0.587 0.126,-0.89 0.083,-0.303 0.192,-0.599 0.326,-0.887 0.134,-0.288 0.283,-0.561 0.448,-0.82 0.165,-0.26 0.327,-0.491 0.485,-0.693 0.167,-0.211 0.365,-0.421 0.593,-0.629 0.229,-0.209 0.466,-0.396 0.712,-0.561 0.246,-0.164 0.488,-0.297 0.725,-0.399 0.238,-0.101 0.449,-0.151 0.633,-0.151 h 0.294 c 0.103,0 0.205,0.005 0.306,0.016 0.101,0.011 0.2,0.029 0.297,0.053 0.097,0.024 0.185,0.06 0.264,0.109 0.039,0.026 0.085,0.077 0.138,0.151 0.053,0.075 0.102,0.159 0.148,0.251 0.047,0.092 0.085,0.185 0.116,0.277 0.031,0.092 0.046,0.165 0.046,0.217 0,0.145 -0.033,0.339 -0.099,0.581 -0.07,0.303 -0.135,0.579 -0.194,0.827 -0.06,0.248 -0.089,0.504 -0.089,0.768 0,0.149 0.024,0.302 0.072,0.458 0.048,0.156 0.118,0.298 0.208,0.425 0.09,0.128 0.2,0.232 0.329,0.314 0.13,0.081 0.276,0.122 0.439,0.122 0.268,0 0.543,-0.056 0.824,-0.169 0.281,-0.112 0.566,-0.265 0.854,-0.461 0.288,-0.196 0.574,-0.422 0.86,-0.679 0.286,-0.257 0.567,-0.531 0.844,-0.821 0.022,-0.026 0.06,-0.071 0.115,-0.135 0.055,-0.064 0.112,-0.127 0.172,-0.191 0.059,-0.064 0.117,-0.121 0.174,-0.172 0.057,-0.05 0.099,-0.075 0.126,-0.075 0.092,0 0.138,0.09 0.138,0.27 z m -5.867,-0.547 c 0,-0.075 -0.005,-0.167 -0.014,-0.277 -0.008,-0.11 -0.037,-0.2 -0.085,-0.271 -0.049,-0.07 -0.108,-0.104 -0.178,-0.102 -0.071,0.002 -0.141,0.004 -0.211,0.004 -0.154,0 -0.302,0.024 -0.445,0.072 -0.143,0.048 -0.283,0.115 -0.419,0.201 -0.136,0.086 -0.267,0.185 -0.392,0.297 -0.125,0.112 -0.247,0.23 -0.366,0.353 -0.101,0.101 -0.208,0.226 -0.32,0.375 -0.112,0.15 -0.222,0.314 -0.33,0.492 -0.107,0.178 -0.212,0.364 -0.313,0.56 -0.101,0.195 -0.189,0.389 -0.263,0.58 -0.075,0.191 -0.134,0.376 -0.178,0.554 -0.044,0.178 -0.066,0.339 -0.066,0.484 0,0.044 0.005,0.103 0.016,0.175 0.011,0.073 0.029,0.143 0.053,0.211 0.024,0.068 0.057,0.126 0.099,0.175 0.042,0.048 0.093,0.072 0.155,0.072 0.202,0 0.455,-0.063 0.758,-0.191 0.413,-0.176 0.788,-0.416 1.124,-0.722 0.336,-0.305 0.623,-0.658 0.86,-1.058 0.343,-0.62 0.515,-1.281 0.515,-1.984 z"
   style="fill:#006699;fill-rule:nonzero"
   id="path31"
   inkscape:connector-curvature="0" />
        </g>
        <g
   transform="translate(0.423027,0.207061)"
   id="g37">
            <path
   d="m 173.179,12.939 c -0.035,0.304 -0.063,0.64 -0.085,1.009 -0.022,0.369 -0.051,0.78 -0.086,1.233 -0.013,0.167 -0.031,0.356 -0.053,0.567 -0.022,0.211 -0.046,0.428 -0.072,0.652 -0.027,0.225 -0.053,0.445 -0.079,0.663 -0.027,0.218 -0.053,0.414 -0.08,0.59 -0.039,0.255 -0.09,0.52 -0.151,0.795 -0.062,0.274 -0.139,0.546 -0.231,0.814 -0.092,0.268 -0.205,0.523 -0.339,0.764 -0.135,0.242 -0.294,0.454 -0.478,0.637 -0.185,0.182 -0.399,0.327 -0.643,0.435 -0.244,0.107 -0.522,0.161 -0.834,0.161 -0.198,0 -0.398,-0.024 -0.6,-0.072 -0.202,-0.049 -0.401,-0.113 -0.597,-0.195 -0.195,-0.081 -0.384,-0.178 -0.567,-0.29 -0.182,-0.112 -0.35,-0.232 -0.504,-0.359 -0.172,-0.141 -0.323,-0.285 -0.455,-0.432 -0.132,-0.147 -0.242,-0.298 -0.33,-0.451 -0.088,-0.15 -0.132,-0.297 -0.132,-0.442 0,-0.136 0.044,-0.205 0.132,-0.205 0.031,0 0.064,0.016 0.099,0.047 0.018,0.013 0.039,0.033 0.063,0.059 0.024,0.026 0.047,0.052 0.069,0.076 0.022,0.024 0.042,0.046 0.059,0.066 0.018,0.019 0.029,0.032 0.033,0.036 0.849,0.782 1.754,1.173 2.717,1.173 0.32,0 0.583,-0.073 0.787,-0.22 0.205,-0.148 0.367,-0.339 0.488,-0.574 0.121,-0.235 0.213,-0.497 0.277,-0.785 0.064,-0.287 0.118,-0.572 0.162,-0.853 0.026,-0.176 0.049,-0.352 0.069,-0.528 0.02,-0.176 0.038,-0.359 0.056,-0.55 0.018,-0.191 0.035,-0.392 0.053,-0.603 0.017,-0.211 0.037,-0.44 0.059,-0.686 -0.18,0.193 -0.408,0.399 -0.682,0.616 -0.275,0.218 -0.569,0.419 -0.884,0.604 -0.314,0.184 -0.63,0.337 -0.949,0.458 -0.319,0.121 -0.612,0.181 -0.88,0.181 -0.114,0 -0.22,-0.026 -0.317,-0.079 -0.096,-0.053 -0.18,-0.129 -0.25,-0.228 -0.071,-0.098 -0.127,-0.219 -0.168,-0.362 -0.042,-0.143 -0.063,-0.302 -0.063,-0.478 0,-0.255 0.044,-0.527 0.132,-0.818 0.088,-0.29 0.2,-0.579 0.336,-0.867 0.136,-0.287 0.288,-0.566 0.455,-0.837 0.167,-0.27 0.33,-0.513 0.488,-0.728 0.158,-0.211 0.349,-0.432 0.573,-0.663 0.225,-0.231 0.465,-0.442 0.722,-0.633 0.257,-0.191 0.525,-0.348 0.801,-0.471 0.277,-0.123 0.548,-0.185 0.811,-0.185 0.233,0 0.451,0.052 0.653,0.155 0.202,0.103 0.358,0.258 0.468,0.465 0.026,0.048 0.042,0.12 0.046,0.214 0.005,0.095 0.002,0.202 -0.006,0.323 -0.009,0.121 -0.022,0.251 -0.04,0.389 -0.018,0.139 -0.035,0.276 -0.053,0.412 z m -1.081,1.2 c 0.018,-0.132 0.035,-0.291 0.053,-0.478 0.017,-0.187 0.039,-0.418 0.066,-0.695 0.013,-0.145 0.027,-0.29 0.043,-0.435 0.015,-0.145 0.01,-0.264 -0.017,-0.356 -0.035,-0.128 -0.103,-0.209 -0.204,-0.244 -0.101,-0.036 -0.266,-0.053 -0.495,-0.053 -0.211,0.132 -0.421,0.294 -0.629,0.488 -0.209,0.193 -0.409,0.402 -0.6,0.626 -0.191,0.224 -0.368,0.456 -0.531,0.696 -0.163,0.239 -0.305,0.473 -0.428,0.702 -0.137,0.25 -0.244,0.5 -0.323,0.748 -0.08,0.248 -0.119,0.458 -0.119,0.63 0,0.074 0.014,0.136 0.043,0.184 0.028,0.049 0.066,0.087 0.112,0.116 0.046,0.028 0.099,0.048 0.158,0.059 0.059,0.011 0.12,0.016 0.181,0.016 0.154,0 0.32,-0.033 0.498,-0.099 0.178,-0.065 0.355,-0.147 0.531,-0.243 0.176,-0.097 0.343,-0.199 0.501,-0.307 0.158,-0.108 0.294,-0.205 0.409,-0.293 0.048,-0.036 0.112,-0.09 0.191,-0.165 0.079,-0.075 0.158,-0.162 0.237,-0.261 0.079,-0.099 0.15,-0.203 0.211,-0.313 0.062,-0.11 0.099,-0.217 0.112,-0.323 z"
   style="fill:#006699;fill-rule:nonzero"
   id="path35"
   inkscape:connector-curvature="0" />
        </g>
        <g
   transform="translate(0.423027,0.207061)"
   id="g41">
            <path
   d="m 183.009,13.454 c 0,0.065 -0.048,0.182 -0.145,0.349 -0.229,0.33 -0.485,0.659 -0.768,0.989 -0.284,0.329 -0.585,0.643 -0.903,0.939 -0.319,0.297 -0.651,0.574 -0.996,0.831 -0.345,0.257 -0.693,0.479 -1.045,0.666 -0.351,0.187 -0.702,0.331 -1.051,0.432 -0.35,0.101 -0.687,0.149 -1.012,0.145 -0.703,0 -1.25,-0.205 -1.638,-0.613 -0.389,-0.409 -0.584,-1.027 -0.584,-1.853 0,-0.69 0.107,-1.36 0.32,-2.011 0.213,-0.65 0.577,-1.277 1.091,-1.879 0.097,-0.105 0.205,-0.206 0.326,-0.303 0.121,-0.097 0.249,-0.182 0.383,-0.257 0.134,-0.075 0.272,-0.134 0.415,-0.178 0.143,-0.044 0.287,-0.07 0.432,-0.079 0.035,0 0.083,0.004 0.145,0.013 0.061,0.009 0.127,0.024 0.198,0.046 0.07,0.022 0.138,0.05 0.204,0.083 0.066,0.033 0.119,0.073 0.158,0.122 0.123,0.14 0.221,0.285 0.294,0.435 0.072,0.149 0.113,0.314 0.122,0.494 0.008,0.202 -0.015,0.401 -0.07,0.597 -0.055,0.195 -0.147,0.395 -0.277,0.6 -0.129,0.204 -0.3,0.415 -0.511,0.633 -0.21,0.217 -0.465,0.451 -0.764,0.702 -0.189,0.158 -0.399,0.333 -0.63,0.524 -0.231,0.191 -0.509,0.392 -0.834,0.603 0,0.426 0.129,0.751 0.386,0.973 0.257,0.221 0.61,0.332 1.058,0.332 0.25,0 0.503,-0.033 0.758,-0.098 0.255,-0.066 0.506,-0.153 0.752,-0.261 0.246,-0.108 0.484,-0.231 0.715,-0.369 0.231,-0.138 0.447,-0.28 0.649,-0.425 0.374,-0.273 0.712,-0.544 1.016,-0.814 0.303,-0.271 0.604,-0.555 0.903,-0.854 l 0.356,-0.356 c 0.215,-0.189 0.371,-0.284 0.468,-0.284 0.053,0 0.079,0.042 0.079,0.126 z m -5.037,-1.312 c -0.004,-0.066 -0.014,-0.131 -0.029,-0.195 -0.016,-0.064 -0.039,-0.12 -0.07,-0.168 -0.03,-0.048 -0.066,-0.087 -0.105,-0.115 -0.04,-0.029 -0.086,-0.043 -0.139,-0.043 -0.233,0.013 -0.465,0.155 -0.698,0.425 -0.233,0.27 -0.453,0.627 -0.66,1.071 -0.048,0.097 -0.091,0.206 -0.128,0.327 -0.038,0.121 -0.073,0.244 -0.106,0.369 -0.033,0.125 -0.061,0.249 -0.085,0.372 -0.025,0.123 -0.045,0.233 -0.063,0.33 0.228,-0.171 0.439,-0.33 0.633,-0.475 0.193,-0.145 0.373,-0.294 0.54,-0.448 0.106,-0.097 0.214,-0.201 0.323,-0.313 0.11,-0.112 0.21,-0.23 0.3,-0.353 0.091,-0.123 0.162,-0.25 0.215,-0.382 0.052,-0.132 0.077,-0.266 0.072,-0.402 z"
   style="fill:#006699;fill-rule:nonzero"
   id="path39"
   inkscape:connector-curvature="0" />
        </g>
        <g
   transform="translate(0.423027,0.207061)"
   id="g45">
            <path
   d="m 193.366,13.289 c 0,0.083 -0.014,0.168 -0.043,0.254 -0.028,0.085 -0.063,0.171 -0.105,0.257 -0.042,0.085 -0.089,0.169 -0.142,0.25 -0.053,0.081 -0.103,0.16 -0.151,0.234 -0.128,0.198 -0.277,0.399 -0.449,0.603 -0.171,0.205 -0.355,0.404 -0.55,0.597 -0.196,0.193 -0.397,0.376 -0.604,0.547 -0.206,0.172 -0.408,0.323 -0.606,0.455 -0.158,0.106 -0.309,0.205 -0.452,0.297 -0.142,0.092 -0.286,0.171 -0.431,0.237 -0.146,0.066 -0.297,0.119 -0.455,0.158 -0.159,0.04 -0.332,0.06 -0.521,0.06 -0.365,0 -0.662,-0.093 -0.89,-0.277 -0.114,-0.092 -0.214,-0.212 -0.3,-0.359 -0.086,-0.148 -0.161,-0.311 -0.224,-0.492 -0.064,-0.18 -0.119,-0.371 -0.165,-0.573 -0.046,-0.202 -0.085,-0.402 -0.116,-0.6 -0.039,-0.246 -0.076,-0.467 -0.112,-0.663 -0.035,-0.195 -0.075,-0.36 -0.122,-0.494 -0.046,-0.134 -0.102,-0.237 -0.168,-0.31 -0.066,-0.073 -0.151,-0.109 -0.257,-0.109 -0.083,0 -0.162,0.009 -0.237,0.027 -0.075,0.017 -0.153,0.052 -0.234,0.105 -0.081,0.053 -0.17,0.128 -0.267,0.224 -0.097,0.097 -0.21,0.224 -0.34,0.383 -0.129,0.158 -0.278,0.351 -0.445,0.58 -0.167,0.228 -0.362,0.501 -0.586,0.817 -0.11,0.154 -0.24,0.323 -0.389,0.508 -0.15,0.185 -0.303,0.36 -0.459,0.527 -0.156,0.167 -0.308,0.315 -0.458,0.442 -0.149,0.128 -0.281,0.209 -0.395,0.244 -0.387,-0.084 -0.581,-0.565 -0.581,-1.444 0,-0.233 0.027,-0.587 0.08,-1.061 0.026,-0.216 0.057,-0.441 0.092,-0.676 0.035,-0.235 0.079,-0.47 0.132,-0.705 0.052,-0.236 0.113,-0.464 0.181,-0.686 0.068,-0.222 0.148,-0.427 0.241,-0.616 0.044,-0.088 0.09,-0.158 0.138,-0.208 0.048,-0.051 0.098,-0.088 0.148,-0.112 0.051,-0.024 0.104,-0.04 0.159,-0.046 0.055,-0.007 0.111,-0.01 0.168,-0.01 0.07,0 0.133,0.048 0.188,0.145 0.055,0.096 0.082,0.231 0.082,0.402 0,0.105 -0.009,0.204 -0.026,0.297 -0.018,0.092 -0.042,0.186 -0.073,0.283 -0.031,0.097 -0.064,0.201 -0.099,0.313 -0.035,0.112 -0.07,0.241 -0.105,0.386 -0.027,0.119 -0.056,0.25 -0.089,0.395 -0.033,0.146 -0.064,0.293 -0.092,0.442 -0.029,0.15 -0.053,0.296 -0.073,0.439 -0.02,0.142 -0.03,0.271 -0.03,0.385 0,0.079 0.014,0.161 0.04,0.244 0.123,-0.013 0.325,-0.198 0.606,-0.554 0.145,-0.18 0.305,-0.378 0.478,-0.593 0.174,-0.215 0.362,-0.453 0.564,-0.712 0.149,-0.193 0.298,-0.374 0.445,-0.541 0.147,-0.167 0.3,-0.313 0.458,-0.438 0.158,-0.125 0.327,-0.224 0.505,-0.297 0.178,-0.072 0.374,-0.108 0.59,-0.108 0.228,0 0.418,0.049 0.57,0.148 0.152,0.099 0.274,0.235 0.366,0.409 0.092,0.173 0.164,0.381 0.214,0.623 0.051,0.241 0.091,0.507 0.122,0.797 0.026,0.247 0.052,0.49 0.076,0.732 0.024,0.242 0.071,0.458 0.142,0.65 0.07,0.191 0.171,0.346 0.303,0.464 0.132,0.119 0.321,0.178 0.567,0.178 0.189,0 0.387,-0.044 0.593,-0.131 0.207,-0.088 0.424,-0.21 0.653,-0.366 0.228,-0.156 0.465,-0.34 0.709,-0.551 0.244,-0.211 0.495,-0.442 0.754,-0.692 0.102,-0.097 0.213,-0.219 0.333,-0.366 0.121,-0.147 0.24,-0.289 0.356,-0.425 0.117,-0.136 0.226,-0.253 0.327,-0.35 0.101,-0.096 0.182,-0.145 0.244,-0.145 0.026,0 0.069,0.013 0.128,0.04 0.06,0.026 0.089,0.07 0.089,0.132 z"
   style="fill:#006699;fill-rule:nonzero"
   id="path43"
   inkscape:connector-curvature="0" />
        </g>
        <g
   transform="translate(0.423027,0.207061)"
   id="g49">
            <path
   d="m 200.5,13.467 c 0,0.158 -0.058,0.301 -0.172,0.428 -0.039,0.044 -0.101,0.102 -0.184,0.175 -0.084,0.072 -0.159,0.142 -0.225,0.208 l -0.606,0.606 c -0.114,0.114 -0.221,0.217 -0.32,0.307 -0.099,0.09 -0.186,0.168 -0.26,0.234 -0.128,0.105 -0.281,0.232 -0.459,0.379 -0.178,0.147 -0.383,0.317 -0.616,0.511 -0.457,0.378 -0.879,0.688 -1.266,0.929 -0.386,0.238 -0.801,0.428 -1.242,0.571 -0.442,0.142 -0.909,0.214 -1.401,0.214 -0.304,0.009 -0.575,-0.044 -0.815,-0.158 -0.239,-0.115 -0.441,-0.27 -0.606,-0.465 -0.165,-0.196 -0.29,-0.425 -0.376,-0.689 -0.086,-0.264 -0.126,-0.543 -0.122,-0.837 0,-0.585 0.124,-1.169 0.373,-1.754 0.248,-0.585 0.579,-1.16 0.992,-1.727 0.224,-0.299 0.494,-0.585 0.811,-0.857 0.312,-0.273 0.595,-0.409 0.85,-0.409 0.136,0 0.292,0.114 0.468,0.343 0.088,0.114 0.172,0.236 0.251,0.366 0.079,0.129 0.151,0.267 0.217,0.412 0.132,0.285 0.198,0.492 0.198,0.619 0,0.128 -0.039,0.293 -0.119,0.495 -0.079,0.202 -0.173,0.303 -0.283,0.303 -0.158,0 -0.29,-0.108 -0.396,-0.323 -0.052,-0.11 -0.091,-0.203 -0.115,-0.28 -0.024,-0.077 -0.052,-0.159 -0.082,-0.247 -0.101,-0.264 -0.187,-0.453 -0.257,-0.567 -0.291,0.052 -0.532,0.195 -0.726,0.428 -0.092,0.114 -0.188,0.252 -0.286,0.412 -0.099,0.161 -0.204,0.342 -0.314,0.544 -0.088,0.158 -0.169,0.336 -0.244,0.534 -0.074,0.198 -0.138,0.401 -0.191,0.61 -0.052,0.209 -0.094,0.418 -0.125,0.626 -0.031,0.209 -0.046,0.404 -0.046,0.584 0,0.255 0.11,0.503 0.329,0.745 0.225,0.233 0.466,0.349 0.726,0.349 0.562,0 1.096,-0.099 1.602,-0.297 0.505,-0.197 0.991,-0.461 1.457,-0.791 0.461,-0.321 0.929,-0.696 1.404,-1.127 0.237,-0.215 0.463,-0.419 0.676,-0.61 0.213,-0.191 0.416,-0.375 0.61,-0.55 0.32,-0.282 0.586,-0.422 0.797,-0.422 0.062,0 0.093,0.059 0.093,0.178 z"
   style="fill:#006699;fill-rule:nonzero"
   id="path47"
   inkscape:connector-curvature="0" />
        </g>
        <g
   transform="translate(0.423027,0.207061)"
   id="g53">
            <path
   d="m 205.939,12.115 c 0,0.075 -0.003,0.162 -0.007,0.261 -0.004,0.099 -0.011,0.212 -0.02,0.339 -0.009,0.123 -0.019,0.251 -0.03,0.383 -0.01,0.131 -0.023,0.268 -0.036,0.408 -0.013,0.141 -0.024,0.265 -0.033,0.373 -0.009,0.107 -0.015,0.199 -0.02,0.273 -0.03,0.603 -0.094,1.221 -0.191,1.856 -0.096,0.635 -0.217,1.241 -0.362,1.817 -0.233,0.953 -0.572,1.769 -1.016,2.445 -0.448,0.686 -1.068,1.029 -1.859,1.029 -0.518,0 -1.041,-0.103 -1.569,-0.31 -0.523,-0.202 -0.965,-0.486 -1.325,-0.85 -0.215,-0.255 -0.323,-0.431 -0.323,-0.528 0,-0.11 0.033,-0.235 0.099,-0.376 0.07,-0.136 0.149,-0.204 0.237,-0.204 0.049,0 0.09,0.026 0.126,0.079 0.149,0.211 0.292,0.378 0.428,0.501 0.585,0.519 1.345,0.778 2.281,0.778 0.369,0 0.692,-0.176 0.969,-0.527 0.141,-0.172 0.265,-0.356 0.373,-0.554 0.107,-0.198 0.203,-0.404 0.287,-0.62 0.083,-0.215 0.158,-0.435 0.224,-0.659 0.066,-0.224 0.125,-0.453 0.178,-0.686 0.044,-0.215 0.078,-0.387 0.102,-0.514 0.024,-0.127 0.038,-0.213 0.043,-0.257 0.022,-0.185 0.037,-0.363 0.046,-0.534 0.009,-0.172 0.026,-0.341 0.053,-0.508 -0.123,0.057 -0.376,0.202 -0.759,0.435 -0.224,0.137 -0.428,0.26 -0.613,0.37 -0.184,0.109 -0.349,0.206 -0.494,0.29 -0.29,0.171 -0.618,0.334 -0.982,0.487 -0.37,0.154 -0.673,0.231 -0.91,0.231 -0.413,0 -0.732,-0.165 -0.956,-0.494 -0.224,-0.33 -0.336,-0.71 -0.336,-1.141 0,-0.307 0.033,-0.65 0.098,-1.028 0.036,-0.189 0.072,-0.366 0.109,-0.531 0.038,-0.165 0.078,-0.32 0.122,-0.465 0.044,-0.145 0.096,-0.318 0.155,-0.521 0.059,-0.202 0.131,-0.435 0.214,-0.698 0.044,-0.145 0.093,-0.272 0.145,-0.379 0.053,-0.108 0.114,-0.198 0.182,-0.271 0.068,-0.072 0.148,-0.126 0.24,-0.161 0.093,-0.035 0.205,-0.053 0.337,-0.053 0.127,0 0.228,0.073 0.303,0.218 0.07,0.136 0.105,0.276 0.105,0.421 0,0.088 -0.019,0.167 -0.059,0.238 -0.022,0.035 -0.053,0.086 -0.092,0.151 -0.04,0.066 -0.09,0.148 -0.152,0.244 -0.061,0.097 -0.11,0.177 -0.145,0.241 -0.035,0.064 -0.057,0.113 -0.066,0.148 -0.035,0.106 -0.066,0.198 -0.092,0.277 -0.027,0.079 -0.051,0.145 -0.073,0.198 -0.017,0.053 -0.037,0.115 -0.059,0.188 -0.022,0.072 -0.048,0.157 -0.079,0.254 -0.057,0.189 -0.098,0.361 -0.122,0.517 -0.024,0.156 -0.036,0.322 -0.036,0.498 0,0.176 0.035,0.389 0.105,0.64 0.075,0.259 0.176,0.388 0.303,0.388 0.387,0 0.855,-0.112 1.405,-0.336 0.549,-0.228 1.046,-0.525 1.49,-0.89 0.444,-0.365 0.712,-0.732 0.804,-1.101 0.017,-0.052 0.031,-0.132 0.039,-0.237 0.009,-0.106 0.017,-0.223 0.024,-0.353 0.006,-0.129 0.012,-0.265 0.016,-0.405 0.004,-0.141 0.01,-0.276 0.017,-0.406 0.006,-0.129 0.014,-0.246 0.023,-0.349 0.008,-0.103 0.022,-0.181 0.039,-0.234 0.114,-0.405 0.299,-0.607 0.554,-0.607 0.242,0 0.391,0.062 0.448,0.185 0.062,0.132 0.093,0.341 0.093,0.626 z"
   style="fill:#006699;fill-rule:nonzero"
   id="path51"
   inkscape:connector-curvature="0" />
        </g>
        <g
   transform="translate(0.423027,0.207061)"
   id="g57">
            <path
   d="M 1.005,1.248 C 0.974,1.188 0.903,1.123 0.789,1.055 0.675,0.987 0.573,0.952 0.482,0.952 h 4.229 c 0.197,0 0.356,0.099 0.477,0.296 0,0.015 0.019,0.076 0.057,0.182 0.038,0.106 0.057,0.182 0.057,0.227 L 5.416,12.934 11.031,0.952 h 4.115 l 0.113,12.05 4.752,-10.867 C 20.193,1.741 20.253,1.483 20.193,1.362 20.162,1.256 20.132,1.188 20.102,1.157 20.071,1.127 20.015,1.1 19.931,1.078 19.848,1.055 19.761,1.013 19.67,0.952 h 3.887 c 0.122,0 0.224,0.027 0.308,0.08 0.083,0.053 0.139,0.106 0.17,0.159 0.03,0.054 0.045,0.095 0.045,0.125 0.061,0.121 0.099,0.22 0.114,0.296 0.015,0.076 0.023,0.129 0.023,0.159 0,0.031 -0.019,0.083 -0.057,0.159 -0.038,0.076 -0.065,0.144 -0.08,0.205 L 16.192,19.14 h -3.933 c -0.182,0.06 -0.379,-0.015 -0.592,-0.228 -0.06,-0.06 -0.121,-0.136 -0.182,-0.227 -0.06,-0.091 -0.106,-0.166 -0.136,-0.227 L 11.326,18.367 11.258,7.864 5.984,19.14 2.051,19.208 C 1.96,19.208 1.854,19.159 1.732,19.06 1.611,18.962 1.543,18.912 1.528,18.912 1.437,18.852 1.361,18.67 1.301,18.367 L 1.232,1.771 C 1.232,1.68 1.156,1.506 1.005,1.248"
   style="fill:#006699;fill-rule:nonzero"
   id="path55"
   inkscape:connector-curvature="0" />
        </g>
        <g
   transform="translate(0.423027,0.207061)"
   id="g61">
            <path
   d="m 27.17,16.519 c 0.289,-0.161 0.515,-0.359 0.676,-0.596 l -0.596,2.416 c -0.096,0.214 -0.257,0.402 -0.483,0.563 -0.193,0.129 -0.488,0.215 -0.885,0.258 h -3.35 c -0.945,-0.065 -1.567,-0.231 -1.868,-0.499 -0.408,-0.387 -0.636,-1.071 -0.684,-2.053 -0.048,-0.983 0.048,-1.986 0.29,-3.011 0.241,-1.026 0.582,-1.976 1.022,-2.851 0.44,-0.875 0.891,-1.419 1.353,-1.634 0.504,-0.215 1.459,-0.317 2.866,-0.306 1.406,0.011 2.335,0.112 2.786,0.306 0.311,0.15 0.542,0.408 0.692,0.773 0.151,0.365 0.231,0.738 0.242,1.119 0.01,0.381 -0.016,0.803 -0.081,1.264 -0.064,0.462 -0.129,0.813 -0.193,1.055 -0.064,0.241 -0.124,0.453 -0.177,0.636 -0.032,0.225 -0.29,0.338 -0.773,0.338 h -5.282 c 0.086,-0.344 0.151,-0.617 0.193,-0.821 l 0.242,-0.838 h 3.607 c 0.075,-0.343 0.118,-0.665 0.129,-0.966 0.011,-0.3 -0.113,-0.55 -0.37,-0.749 -0.258,-0.198 -0.65,-0.298 -1.176,-0.298 -0.215,0 -0.411,0.022 -0.588,0.065 -0.177,0.043 -0.327,0.086 -0.45,0.129 -0.124,0.043 -0.242,0.131 -0.355,0.265 -0.112,0.135 -0.201,0.239 -0.266,0.314 -0.064,0.076 -0.139,0.221 -0.225,0.435 -0.086,0.215 -0.145,0.373 -0.177,0.475 -0.032,0.103 -0.094,0.298 -0.185,0.588 -0.092,0.29 -0.159,0.499 -0.201,0.628 -0.28,1.396 -0.409,2.244 -0.387,2.544 0.021,0.172 0.065,0.301 0.129,0.387 0.129,0.203 0.483,0.306 1.063,0.306 h 1.964 c 0.408,0 0.701,-0.014 0.878,-0.041 0.177,-0.026 0.383,-0.093 0.62,-0.201"
   style="fill:#006699;fill-rule:nonzero"
   id="path59"
   inkscape:connector-curvature="0" />
        </g>
        <g
   transform="translate(0.423027,0.207061)"
   id="g65">
            <path
   d="M 31.323,6.455 C 31.312,6.412 31.261,6.366 31.17,6.318 31.078,6.27 31.011,6.245 30.968,6.245 h 3.011 c 0.162,0 0.258,0.006 0.29,0.017 0.054,0.096 0.059,0.214 0.016,0.354 l -2.56,10.386 h 1.659 c 0.29,0 0.633,-0.118 1.03,-0.354 l 0.29,-0.145 c 0.086,-0.043 0.166,-0.097 0.242,-0.161 0.075,-0.065 0.136,-0.121 0.185,-0.169 0.048,-0.048 0.099,-0.121 0.153,-0.218 0.053,-0.096 0.094,-0.174 0.121,-0.233 0.026,-0.059 0.061,-0.158 0.104,-0.298 0.043,-0.139 0.078,-0.252 0.105,-0.338 0.027,-0.086 0.067,-0.228 0.121,-0.427 0.053,-0.198 0.096,-0.362 0.129,-0.491 0.504,-1.61 0.531,-2.619 0.08,-3.027 -0.161,-0.161 -0.408,-0.242 -0.741,-0.242 h -1.014 c -0.118,0.022 -0.242,0.051 -0.37,0.089 -0.129,0.038 -0.226,0.062 -0.29,0.072 -0.151,0.064 -0.264,0.153 -0.338,0.266 -0.076,0.113 -0.161,0.293 -0.258,0.539 l 0.403,-1.497 0.643,-1.127 c 0.075,-0.097 0.127,-0.188 0.154,-0.274 0.026,-0.086 0.056,-0.134 0.088,-0.145 0.097,-0.054 0.252,-0.081 0.467,-0.081 h 2.061 c 0.333,0 0.701,0.111 1.103,0.331 0.403,0.22 0.722,0.555 0.958,1.006 0.129,0.29 0.196,0.698 0.202,1.224 0.005,0.526 -0.073,1.151 -0.234,1.876 -0.161,0.724 -0.354,1.43 -0.579,2.117 -0.226,0.687 -0.508,1.337 -0.846,1.949 -0.338,0.612 -0.684,1.068 -1.038,1.368 -0.473,0.366 -1.063,0.548 -1.772,0.548 H 29.406 C 29.052,19.138 28.843,19.069 28.778,18.951 28.682,18.79 28.634,18.65 28.634,18.532 L 31.435,6.858 C 31.489,6.697 31.451,6.562 31.323,6.455"
   style="fill:#006699;fill-rule:nonzero"
   id="path63"
   inkscape:connector-curvature="0" />
        </g>
        <g
   transform="translate(0.423027,0.207061)"
   id="g69">
            <path
   d="m 47.538,8.774 -0.274,1.191 c -0.043,0.14 -0.129,0.242 -0.257,0.306 -0.119,0.086 -0.285,0.129 -0.5,0.129 h -2.093 c -0.086,0.011 -0.207,0.019 -0.362,0.024 -0.156,0.006 -0.28,0.014 -0.371,0.024 -0.091,0.011 -0.193,0.038 -0.305,0.081 -0.113,0.043 -0.208,0.115 -0.282,0.217 -0.075,0.103 -0.14,0.234 -0.194,0.395 -0.01,0.032 -0.035,0.121 -0.072,0.266 -0.038,0.144 -0.059,0.244 -0.064,0.297 -0.006,0.054 -0.006,0.137 0,0.25 0.005,0.113 0.032,0.196 0.08,0.249 0.049,0.054 0.126,0.119 0.234,0.194 0.107,0.075 0.247,0.139 0.418,0.193 0.075,0.022 0.258,0.062 0.548,0.121 0.29,0.059 0.52,0.115 0.692,0.169 0.172,0.054 0.384,0.123 0.636,0.209 0.252,0.086 0.475,0.194 0.668,0.322 0.194,0.129 0.365,0.28 0.516,0.451 0.161,0.172 0.255,0.47 0.282,0.894 0.026,0.424 0,0.864 -0.081,1.32 -0.081,0.456 -0.22,0.905 -0.419,1.345 -0.198,0.44 -0.421,0.762 -0.668,0.966 -0.633,0.515 -1.326,0.773 -2.077,0.773 h -4.895 c -0.086,0 -0.178,-0.027 -0.274,-0.081 -0.097,-0.053 -0.15,-0.107 -0.161,-0.161 -0.064,-0.214 -0.075,-0.375 -0.032,-0.483 l 0.515,-1.771 h 0.129 c -0.043,0.161 -0.016,0.344 0.08,0.547 0.011,0.022 0.024,0.043 0.041,0.065 0.016,0.022 0.037,0.04 0.064,0.056 0.027,0.016 0.051,0.03 0.073,0.04 0.021,0.011 0.05,0.02 0.088,0.025 0.037,0.005 0.07,0.01 0.097,0.016 0.026,0.005 0.067,0.008 0.12,0.008 h 0.451 c 1.772,0.043 2.872,-0.016 3.301,-0.177 0.451,-0.172 0.736,-0.634 0.854,-1.385 0.042,-0.29 -0.073,-0.521 -0.346,-0.692 -0.274,-0.172 -0.62,-0.307 -1.039,-0.403 -0.419,-0.097 -0.837,-0.202 -1.256,-0.314 -0.419,-0.113 -0.77,-0.306 -1.055,-0.58 -0.284,-0.273 -0.411,-0.63 -0.378,-1.071 0.032,-0.343 0.059,-0.609 0.08,-0.797 0.022,-0.187 0.07,-0.429 0.145,-0.724 0.075,-0.296 0.185,-0.572 0.33,-0.83 0.145,-0.257 0.33,-0.504 0.556,-0.741 C 41.252,9.461 41.51,9.238 41.854,9.039 42.197,8.841 42.6,8.752 43.061,8.774 Z"
   style="fill:#006699;fill-rule:nonzero"
   id="path67"
   inkscape:connector-curvature="0" />
        </g>
        <g
   transform="translate(0.423027,0.207061)"
   id="g73">
            <path
   d="m 49.776,7.872 0.258,-1.465 h 1.932 c 0.183,0 0.295,0.008 0.338,0.024 0.043,0.016 0.091,0.056 0.145,0.12 0,0.011 0.019,0.065 0.057,0.162 0.037,0.096 0.056,0.166 0.056,0.209 L 52.256,8.258 H 50.388 C 50.12,8.258 49.959,8.216 49.905,8.13 49.905,8.108 49.883,8.068 49.84,8.009 49.797,7.95 49.776,7.904 49.776,7.872 M 49.293,9.16 C 49.186,8.978 49.073,8.87 48.955,8.838 h 2.689 c 0.054,0 0.124,0.024 0.209,0.072 0.086,0.049 0.14,0.094 0.161,0.138 0.086,0.096 0.118,0.236 0.097,0.418 l -1.981,8.792 c -0.021,0.333 -0.021,0.532 0,0.596 0.162,0.204 0.312,0.306 0.451,0.306 h -2.512 c -0.204,0 -0.349,-0.07 -0.435,-0.21 -0.074,-0.086 -0.112,-0.252 -0.112,-0.498 l 1.932,-8.567 c 0,-0.268 -0.054,-0.51 -0.161,-0.725"
   style="fill:#006699;fill-rule:nonzero"
   id="path71"
   inkscape:connector-curvature="0" />
        </g>
        <g
   transform="translate(0.423027,0.207061)"
   id="g77">
            <path
   d="m 73.893,16.519 c 0.29,-0.161 0.515,-0.359 0.676,-0.596 l -0.595,2.416 c -0.097,0.214 -0.258,0.402 -0.484,0.563 -0.193,0.129 -0.489,0.215 -0.885,0.258 h -3.35 c -0.944,-0.065 -1.567,-0.231 -1.867,-0.499 -0.408,-0.387 -0.637,-1.071 -0.685,-2.053 -0.048,-0.983 0.048,-1.986 0.29,-3.011 0.242,-1.026 0.582,-1.976 1.022,-2.851 0.44,-0.875 0.892,-1.419 1.353,-1.634 0.504,-0.215 1.46,-0.317 2.866,-0.306 1.407,0.011 2.335,0.112 2.786,0.306 0.311,0.15 0.542,0.408 0.692,0.773 0.151,0.365 0.231,0.738 0.242,1.119 0.011,0.381 -0.016,0.803 -0.08,1.264 -0.065,0.462 -0.129,0.813 -0.193,1.055 -0.065,0.241 -0.124,0.453 -0.178,0.636 -0.032,0.225 -0.29,0.338 -0.773,0.338 h -5.281 c 0.086,-0.344 0.15,-0.617 0.193,-0.821 l 0.241,-0.838 h 3.607 c 0.075,-0.343 0.118,-0.665 0.129,-0.966 0.011,-0.3 -0.112,-0.55 -0.37,-0.749 -0.258,-0.198 -0.65,-0.298 -1.175,-0.298 -0.216,0 -0.411,0.022 -0.588,0.065 -0.178,0.043 -0.328,0.086 -0.451,0.129 -0.124,0.043 -0.242,0.131 -0.354,0.265 -0.113,0.135 -0.202,0.239 -0.266,0.314 -0.065,0.076 -0.14,0.221 -0.226,0.435 -0.086,0.215 -0.145,0.373 -0.177,0.475 -0.032,0.103 -0.094,0.298 -0.185,0.588 -0.091,0.29 -0.158,0.499 -0.202,0.628 -0.279,1.396 -0.407,2.244 -0.385,2.544 0.021,0.172 0.064,0.301 0.128,0.387 0.129,0.203 0.483,0.306 1.063,0.306 h 1.964 c 0.408,0 0.701,-0.014 0.878,-0.041 0.177,-0.026 0.384,-0.093 0.62,-0.201"
   style="fill:#006699;fill-rule:nonzero"
   id="path75"
   inkscape:connector-curvature="0" />
        </g>
        <g
   transform="translate(0.423027,0.207061)"
   id="g81">
            <path
   d="M 60.226,9.249 C 59.434,9.249 59.04,8.992 58.594,8.64 58.151,8.287 58.013,7.711 58.089,7.039 L 57.236,7.038 56.738,8.926 54.408,8.924 53.772,10.54 c -0.026,0.192 0.031,0.304 0.15,0.384 0.088,0.112 0.244,0.144 0.447,0.144 l 1.319,0.002 c 0.251,0.033 0.374,0.032 0.431,0.112 0.096,0.128 0.051,0.225 10e-4,0.432 l -1.144,4.88 c -0.066,0.144 -0.162,0.352 -0.238,0.416 -0.097,0.144 -0.318,0.319 -0.52,0.319 l -1.677,-10e-4 c -0.186,-0.001 -0.263,-0.24 -0.366,-0.321 -0.064,-0.063 -0.155,-0.304 -0.114,-0.495 l -0.539,2.351 c -0.02,0.144 0.009,0.384 0.127,0.4 0.078,0.033 0.22,0.129 0.422,0.129 l 4.008,0.004 c 0.155,0 0.371,-0.128 0.485,-0.208 0.191,-0.112 0.425,-0.351 0.528,-0.576 l 1.812,-7.439 0.911,0.002 z"
   style="fill:#006699;fill-rule:nonzero"
   id="path79"
   inkscape:connector-curvature="0" />
        </g>
        <g
   transform="translate(0.423027,0.207061)"
   id="g85">
            <path
   d="m 60.525,9.239 c 0.817,0 1.345,-0.255 1.968,-0.607 0.625,-0.353 1.041,-0.929 1.281,-1.601 h 0.88 L 64.27,8.919 h 2.4 l -0.111,1.617 c -0.065,0.191 -0.177,0.304 -0.336,0.383 -0.145,0.112 -0.32,0.145 -0.529,0.145 h -1.36 c -0.272,0.032 -0.401,0.032 -0.496,0.112 -0.16,0.128 -0.16,0.224 -0.208,0.432 l -1.137,4.881 c 0,0.144 0,0.352 0.048,0.416 0.033,0.144 0.176,0.319 0.385,0.319 h 1.728 c 0.192,0 0.384,-0.239 0.528,-0.319 0.096,-0.064 0.304,-0.304 0.352,-0.496 l -0.56,2.352 c -0.048,0.144 -0.192,0.384 -0.32,0.4 -0.095,0.032 -0.288,0.128 -0.496,0.128 h -4.129 c -0.159,0 -0.32,-0.128 -0.4,-0.208 -0.144,-0.112 -0.272,-0.352 -0.272,-0.576 l 1.664,-7.441 -0.905,10e-4 z"
   style="fill:#006699;fill-rule:nonzero"
   id="path83"
   inkscape:connector-curvature="0" />
        </g>
    </g>
<g
   style="clip-rule:evenodd;fill-rule:evenodd;stroke-linejoin:round;stroke-miterlimit:2"
   id="Artboard1-2"
   transform="matrix(248.39217,0,0,248.39217,168.4756,-2108.6639)">
        <rect
   x="-0.57700002"
   y="-1.793"
   width="210.668"
   height="27.806"
   style="fill:none"
   id="rect3799" />
        <g
   transform="translate(0.423027,0.207061)"
   id="g3803">
            <rect
   x="90.832001"
   y="3.5710001"
   width="0.63499999"
   height="20.305"
   style="fill:#999999"
   id="rect3801" />
        </g>
        <g
   id="online-agency-8"
   serif:id="online agency"
   transform="translate(0.423027,0.207061)">
            <path
   inkscape:connector-curvature="0"
   d="m 115.618,12.478 c 0,0.075 -0.016,0.15 -0.049,0.227 -0.033,0.077 -0.076,0.152 -0.129,0.224 -0.052,0.073 -0.111,0.141 -0.174,0.205 -0.064,0.064 -0.129,0.115 -0.195,0.155 -0.154,0.101 -0.372,0.19 -0.656,0.267 -0.283,0.077 -0.634,0.115 -1.051,0.115 -0.334,0 -0.671,-0.043 -1.009,-0.128 -0.339,-0.086 -0.664,-0.228 -0.976,-0.426 0.101,0.154 0.166,0.301 0.195,0.442 0.028,0.141 0.043,0.308 0.043,0.501 0,0.347 -0.088,0.716 -0.264,1.108 -0.172,0.395 -0.394,0.762 -0.666,1.101 -0.273,0.338 -0.56,0.619 -0.864,0.843 -0.171,0.128 -0.359,0.239 -0.563,0.333 -0.205,0.095 -0.419,0.172 -0.643,0.231 -0.224,0.06 -0.457,0.103 -0.699,0.132 -0.242,0.029 -0.486,0.043 -0.732,0.043 -0.171,0 -0.338,-0.055 -0.501,-0.165 -0.162,-0.11 -0.307,-0.244 -0.435,-0.402 -0.127,-0.158 -0.23,-0.328 -0.307,-0.508 -0.076,-0.18 -0.115,-0.343 -0.115,-0.488 0,-0.356 0.047,-0.697 0.142,-1.025 0.094,-0.327 0.222,-0.644 0.382,-0.949 0.161,-0.306 0.346,-0.604 0.557,-0.897 0.211,-0.292 0.435,-0.583 0.673,-0.873 0.132,-0.163 0.282,-0.322 0.451,-0.478 0.17,-0.156 0.347,-0.296 0.531,-0.419 0.185,-0.123 0.371,-0.223 0.56,-0.3 0.189,-0.077 0.37,-0.115 0.541,-0.115 0.141,0 0.262,0.02 0.363,0.059 0.101,0.04 0.196,0.096 0.286,0.168 0.091,0.073 0.183,0.164 0.277,0.274 0.095,0.11 0.204,0.233 0.327,0.369 0.039,0.04 0.148,0.098 0.326,0.175 0.178,0.077 0.389,0.151 0.633,0.224 0.244,0.072 0.5,0.136 0.768,0.191 0.268,0.055 0.512,0.082 0.732,0.082 0.22,0 0.422,-0.007 0.606,-0.023 0.185,-0.015 0.364,-0.04 0.538,-0.075 0.173,-0.036 0.346,-0.084 0.517,-0.145 0.172,-0.062 0.356,-0.137 0.554,-0.225 0.018,0.066 0.026,0.123 0.026,0.172 z m -4.924,1.582 c 0.004,-0.123 -0.005,-0.263 -0.027,-0.419 -0.022,-0.156 -0.06,-0.303 -0.115,-0.441 -0.055,-0.139 -0.128,-0.252 -0.218,-0.34 -0.09,-0.088 -0.201,-0.123 -0.333,-0.105 -0.202,-0.079 -0.369,-0.163 -0.501,-0.251 -0.132,-0.088 -0.233,-0.132 -0.303,-0.132 -0.053,0 -0.11,0.017 -0.171,0.05 -0.062,0.033 -0.126,0.078 -0.192,0.135 -0.066,0.057 -0.133,0.124 -0.201,0.201 -0.068,0.077 -0.135,0.157 -0.201,0.241 -0.132,0.171 -0.254,0.327 -0.366,0.468 -0.112,0.14 -0.217,0.28 -0.316,0.418 -0.099,0.139 -0.195,0.284 -0.287,0.435 -0.092,0.152 -0.184,0.322 -0.277,0.511 -0.039,0.08 -0.074,0.174 -0.105,0.284 -0.031,0.11 -0.057,0.223 -0.079,0.339 -0.022,0.117 -0.039,0.233 -0.05,0.35 -0.011,0.116 -0.016,0.221 -0.016,0.313 0,0.057 0.019,0.126 0.059,0.208 0.04,0.081 0.091,0.16 0.155,0.237 0.064,0.077 0.136,0.142 0.218,0.194 0.081,0.053 0.161,0.08 0.24,0.08 0.224,0 0.415,-0.01 0.574,-0.03 0.158,-0.02 0.304,-0.055 0.438,-0.106 0.134,-0.05 0.269,-0.119 0.406,-0.207 0.136,-0.088 0.294,-0.202 0.474,-0.343 0.088,-0.066 0.175,-0.143 0.261,-0.231 0.085,-0.088 0.17,-0.181 0.253,-0.28 0.084,-0.099 0.163,-0.2 0.238,-0.303 0.075,-0.104 0.145,-0.206 0.211,-0.307 0.044,-0.066 0.081,-0.147 0.112,-0.244 0.031,-0.096 0.055,-0.193 0.072,-0.29 0.018,-0.097 0.03,-0.184 0.037,-0.264 0.006,-0.079 0.01,-0.136 0.01,-0.171 z"
   style="fill:#999999;fill-rule:nonzero"
   id="path3805" />
        </g>
        <g
   transform="translate(0.423027,0.207061)"
   id="g3810">
            <path
   inkscape:connector-curvature="0"
   d="m 125.554,13.289 c 0,0.083 -0.015,0.168 -0.043,0.254 -0.029,0.085 -0.064,0.171 -0.106,0.257 -0.042,0.085 -0.089,0.169 -0.142,0.25 -0.052,0.081 -0.103,0.16 -0.151,0.234 -0.128,0.198 -0.277,0.399 -0.448,0.603 -0.172,0.205 -0.355,0.404 -0.551,0.597 -0.196,0.193 -0.397,0.376 -0.603,0.547 -0.207,0.172 -0.409,0.323 -0.607,0.455 -0.158,0.106 -0.308,0.205 -0.451,0.297 -0.143,0.092 -0.287,0.171 -0.432,0.237 -0.145,0.066 -0.297,0.119 -0.455,0.158 -0.158,0.04 -0.332,0.06 -0.521,0.06 -0.365,0 -0.661,-0.093 -0.89,-0.277 -0.114,-0.092 -0.214,-0.212 -0.3,-0.359 -0.086,-0.148 -0.16,-0.311 -0.224,-0.492 -0.064,-0.18 -0.119,-0.371 -0.165,-0.573 -0.046,-0.202 -0.084,-0.402 -0.115,-0.6 -0.04,-0.246 -0.077,-0.467 -0.112,-0.663 -0.035,-0.195 -0.076,-0.36 -0.122,-0.494 -0.046,-0.134 -0.102,-0.237 -0.168,-0.31 -0.066,-0.073 -0.152,-0.109 -0.257,-0.109 -0.084,0 -0.163,0.009 -0.238,0.027 -0.075,0.017 -0.153,0.052 -0.234,0.105 -0.081,0.053 -0.17,0.128 -0.267,0.224 -0.097,0.097 -0.21,0.224 -0.339,0.383 -0.13,0.158 -0.278,0.351 -0.445,0.58 -0.167,0.228 -0.363,0.501 -0.587,0.817 -0.11,0.154 -0.24,0.323 -0.389,0.508 -0.15,0.185 -0.302,0.36 -0.458,0.527 -0.156,0.167 -0.309,0.315 -0.459,0.442 -0.149,0.128 -0.281,0.209 -0.395,0.244 -0.387,-0.084 -0.58,-0.565 -0.58,-1.444 0,-0.233 0.026,-0.587 0.079,-1.061 0.026,-0.216 0.057,-0.441 0.092,-0.676 0.035,-0.235 0.079,-0.47 0.132,-0.705 0.053,-0.236 0.113,-0.464 0.181,-0.686 0.068,-0.222 0.149,-0.427 0.241,-0.616 0.044,-0.088 0.09,-0.158 0.138,-0.208 0.049,-0.051 0.098,-0.088 0.149,-0.112 0.05,-0.024 0.103,-0.04 0.158,-0.046 0.055,-0.007 0.111,-0.01 0.168,-0.01 0.07,0 0.133,0.048 0.188,0.145 0.055,0.096 0.082,0.231 0.082,0.402 0,0.105 -0.008,0.204 -0.026,0.297 -0.018,0.092 -0.042,0.186 -0.073,0.283 -0.03,0.097 -0.063,0.201 -0.098,0.313 -0.036,0.112 -0.071,0.241 -0.106,0.386 -0.026,0.119 -0.056,0.25 -0.089,0.395 -0.033,0.146 -0.064,0.293 -0.092,0.442 -0.029,0.15 -0.053,0.296 -0.073,0.439 -0.019,0.142 -0.029,0.271 -0.029,0.385 0,0.079 0.013,0.161 0.039,0.244 0.123,-0.013 0.325,-0.198 0.607,-0.554 0.145,-0.18 0.304,-0.378 0.478,-0.593 0.173,-0.215 0.361,-0.453 0.563,-0.712 0.15,-0.193 0.298,-0.374 0.445,-0.541 0.148,-0.167 0.3,-0.313 0.459,-0.438 0.158,-0.125 0.326,-0.224 0.504,-0.297 0.178,-0.072 0.375,-0.108 0.59,-0.108 0.229,0 0.419,0.049 0.57,0.148 0.152,0.099 0.274,0.235 0.366,0.409 0.092,0.173 0.164,0.381 0.214,0.623 0.051,0.241 0.092,0.507 0.122,0.797 0.027,0.247 0.052,0.49 0.076,0.732 0.024,0.242 0.072,0.458 0.142,0.65 0.07,0.191 0.171,0.346 0.303,0.464 0.132,0.119 0.321,0.178 0.567,0.178 0.189,0 0.387,-0.044 0.594,-0.131 0.206,-0.088 0.424,-0.21 0.652,-0.366 0.229,-0.156 0.465,-0.34 0.709,-0.551 0.244,-0.211 0.495,-0.442 0.755,-0.692 0.101,-0.097 0.212,-0.219 0.333,-0.366 0.121,-0.147 0.239,-0.289 0.356,-0.425 0.116,-0.136 0.225,-0.253 0.326,-0.35 0.101,-0.096 0.182,-0.145 0.244,-0.145 0.026,0 0.069,0.013 0.129,0.04 0.059,0.026 0.089,0.07 0.089,0.132 z"
   style="fill:#999999;fill-rule:nonzero"
   id="path3808" />
        </g>
        <g
   transform="translate(0.423027,0.207061)"
   id="g3814">
            <path
   inkscape:connector-curvature="0"
   d="m 130.993,14.007 c 0,0.207 -0.126,0.53 -0.376,0.969 -0.049,0.084 -0.116,0.184 -0.201,0.3 -0.086,0.117 -0.182,0.238 -0.287,0.363 -0.106,0.125 -0.215,0.253 -0.33,0.382 -0.114,0.13 -0.226,0.25 -0.336,0.36 -0.167,0.167 -0.35,0.329 -0.55,0.488 -0.2,0.158 -0.411,0.301 -0.633,0.428 -0.222,0.128 -0.451,0.23 -0.686,0.307 -0.235,0.077 -0.467,0.115 -0.696,0.115 -0.303,0 -0.586,-0.055 -0.85,-0.165 -0.264,-0.11 -0.493,-0.279 -0.689,-0.507 -0.196,-0.229 -0.349,-0.516 -0.461,-0.861 -0.113,-0.345 -0.169,-0.752 -0.169,-1.223 0,-0.321 0.016,-0.656 0.047,-1.005 0.03,-0.35 0.07,-0.7 0.118,-1.052 0.049,-0.351 0.102,-0.7 0.162,-1.045 0.059,-0.345 0.12,-0.678 0.181,-0.998 0.04,-0.22 0.074,-0.4 0.102,-0.541 0.029,-0.141 0.054,-0.27 0.076,-0.389 0.022,-0.119 0.042,-0.238 0.059,-0.359 0.018,-0.121 0.04,-0.272 0.066,-0.452 0.018,-0.123 0.034,-0.232 0.05,-0.326 0.015,-0.095 0.027,-0.173 0.036,-0.234 0.018,-0.106 0.047,-0.207 0.089,-0.304 0.042,-0.096 0.095,-0.182 0.158,-0.257 0.064,-0.074 0.138,-0.134 0.221,-0.178 0.084,-0.044 0.176,-0.066 0.277,-0.066 0.211,0 0.367,0.099 0.468,0.297 -0.026,0.136 -0.054,0.267 -0.082,0.392 -0.029,0.126 -0.054,0.259 -0.076,0.399 -0.11,0.554 -0.2,1.002 -0.27,1.345 -0.071,0.343 -0.121,0.585 -0.152,0.725 -0.053,0.277 -0.109,0.576 -0.168,0.897 -0.059,0.321 -0.114,0.648 -0.165,0.982 -0.051,0.334 -0.091,0.664 -0.122,0.989 -0.031,0.325 -0.046,0.629 -0.046,0.91 0,0.303 0.024,0.579 0.072,0.827 0.049,0.249 0.127,0.461 0.234,0.637 0.108,0.175 0.247,0.312 0.416,0.408 0.169,0.097 0.374,0.145 0.616,0.145 0.264,0 0.523,-0.058 0.778,-0.174 0.255,-0.117 0.5,-0.265 0.735,-0.445 0.235,-0.181 0.458,-0.379 0.669,-0.597 0.211,-0.218 0.405,-0.427 0.581,-0.63 0.14,-0.167 0.263,-0.311 0.369,-0.431 0.105,-0.121 0.193,-0.223 0.263,-0.307 0.058,-0.066 0.122,-0.134 0.195,-0.204 0.072,-0.071 0.14,-0.106 0.201,-0.106 0.07,0 0.106,0.064 0.106,0.191 z"
   style="fill:#999999;fill-rule:nonzero"
   id="path3812" />
        </g>
        <g
   transform="translate(0.423027,0.207061)"
   id="g3818">
            <path
   inkscape:connector-curvature="0"
   d="m 133.293,8.351 c 0,0.285 -0.074,0.529 -0.224,0.732 -0.145,0.202 -0.358,0.303 -0.639,0.303 -0.176,0 -0.372,-0.027 -0.587,-0.079 -0.211,-0.053 -0.316,-0.139 -0.316,-0.257 0,-0.216 0.067,-0.421 0.201,-0.617 0.134,-0.195 0.295,-0.355 0.484,-0.478 0.15,-0.088 0.249,-0.132 0.297,-0.132 0.25,0 0.444,0.034 0.58,0.103 0.136,0.068 0.204,0.209 0.204,0.425 z m 4.319,5.36 c 0.004,0.092 -0.037,0.217 -0.122,0.375 -0.086,0.159 -0.203,0.338 -0.35,0.538 -0.147,0.2 -0.318,0.414 -0.514,0.643 -0.196,0.228 -0.401,0.457 -0.616,0.685 -0.247,0.264 -0.507,0.518 -0.782,0.762 -0.274,0.244 -0.568,0.48 -0.88,0.708 -0.615,0.457 -1.164,0.686 -1.648,0.686 -0.532,0 -0.945,-0.178 -1.239,-0.534 -0.295,-0.36 -0.495,-0.796 -0.6,-1.305 -0.106,-0.506 -0.159,-1.027 -0.159,-1.563 0,-0.224 0.027,-0.573 0.08,-1.048 0.026,-0.237 0.052,-0.442 0.079,-0.613 0.026,-0.172 0.055,-0.31 0.085,-0.416 0.062,-0.206 0.192,-0.386 0.389,-0.54 0.203,-0.163 0.413,-0.244 0.633,-0.244 0.119,0 0.178,0.112 0.178,0.336 0,0.15 -0.014,0.319 -0.043,0.508 -0.028,0.189 -0.058,0.376 -0.089,0.56 -0.057,0.347 -0.098,0.658 -0.125,0.933 -0.026,0.275 -0.039,0.513 -0.039,0.715 0,0.444 0.061,0.893 0.184,1.345 0.123,0.462 0.345,0.692 0.666,0.692 0.325,0 0.703,-0.118 1.134,-0.356 0.215,-0.123 0.431,-0.259 0.646,-0.408 0.215,-0.15 0.431,-0.317 0.646,-0.501 0.22,-0.185 0.431,-0.371 0.633,-0.557 0.202,-0.187 0.4,-0.379 0.593,-0.577 0.194,-0.198 0.367,-0.383 0.521,-0.554 0.154,-0.171 0.288,-0.33 0.402,-0.475 0.005,-0.009 0.012,-0.023 0.023,-0.043 0.011,-0.019 0.024,-0.039 0.037,-0.059 0.013,-0.02 0.026,-0.036 0.039,-0.049 0.013,-0.014 0.027,-0.018 0.04,-0.014 0.061,0 0.108,0.049 0.138,0.146 0.04,0.092 0.06,0.167 0.06,0.224 z"
   style="fill:#999999;fill-rule:nonzero"
   id="path3816" />
        </g>
        <g
   transform="translate(0.423027,0.207061)"
   id="g3822">
            <path
   inkscape:connector-curvature="0"
   d="m 148.074,13.289 c 0,0.083 -0.014,0.168 -0.043,0.254 -0.028,0.085 -0.063,0.171 -0.105,0.257 -0.042,0.085 -0.089,0.169 -0.142,0.25 -0.053,0.081 -0.103,0.16 -0.151,0.234 -0.128,0.198 -0.277,0.399 -0.449,0.603 -0.171,0.205 -0.355,0.404 -0.55,0.597 -0.196,0.193 -0.397,0.376 -0.603,0.547 -0.207,0.172 -0.409,0.323 -0.607,0.455 -0.158,0.106 -0.309,0.205 -0.452,0.297 -0.142,0.092 -0.286,0.171 -0.431,0.237 -0.145,0.066 -0.297,0.119 -0.455,0.158 -0.159,0.04 -0.332,0.06 -0.521,0.06 -0.365,0 -0.662,-0.093 -0.89,-0.277 -0.114,-0.092 -0.214,-0.212 -0.3,-0.359 -0.086,-0.148 -0.161,-0.311 -0.224,-0.492 -0.064,-0.18 -0.119,-0.371 -0.165,-0.573 -0.046,-0.202 -0.085,-0.402 -0.115,-0.6 -0.04,-0.246 -0.077,-0.467 -0.113,-0.663 -0.035,-0.195 -0.075,-0.36 -0.122,-0.494 -0.046,-0.134 -0.102,-0.237 -0.168,-0.31 -0.066,-0.073 -0.151,-0.109 -0.257,-0.109 -0.083,0 -0.162,0.009 -0.237,0.027 -0.075,0.017 -0.153,0.052 -0.234,0.105 -0.081,0.053 -0.17,0.128 -0.267,0.224 -0.097,0.097 -0.21,0.224 -0.34,0.383 -0.129,0.158 -0.278,0.351 -0.445,0.58 -0.167,0.228 -0.362,0.501 -0.586,0.817 -0.11,0.154 -0.24,0.323 -0.389,0.508 -0.15,0.185 -0.303,0.36 -0.459,0.527 -0.156,0.167 -0.308,0.315 -0.458,0.442 -0.149,0.128 -0.281,0.209 -0.395,0.244 -0.387,-0.084 -0.581,-0.565 -0.581,-1.444 0,-0.233 0.027,-0.587 0.08,-1.061 0.026,-0.216 0.057,-0.441 0.092,-0.676 0.035,-0.235 0.079,-0.47 0.132,-0.705 0.052,-0.236 0.113,-0.464 0.181,-0.686 0.068,-0.222 0.148,-0.427 0.241,-0.616 0.044,-0.088 0.09,-0.158 0.138,-0.208 0.048,-0.051 0.098,-0.088 0.148,-0.112 0.051,-0.024 0.104,-0.04 0.159,-0.046 0.055,-0.007 0.111,-0.01 0.168,-0.01 0.07,0 0.133,0.048 0.188,0.145 0.055,0.096 0.082,0.231 0.082,0.402 0,0.105 -0.009,0.204 -0.026,0.297 -0.018,0.092 -0.042,0.186 -0.073,0.283 -0.031,0.097 -0.064,0.201 -0.099,0.313 -0.035,0.112 -0.07,0.241 -0.105,0.386 -0.027,0.119 -0.056,0.25 -0.089,0.395 -0.033,0.146 -0.064,0.293 -0.092,0.442 -0.029,0.15 -0.053,0.296 -0.073,0.439 -0.02,0.142 -0.03,0.271 -0.03,0.385 0,0.079 0.014,0.161 0.04,0.244 0.123,-0.013 0.325,-0.198 0.606,-0.554 0.145,-0.18 0.305,-0.378 0.478,-0.593 0.174,-0.215 0.362,-0.453 0.564,-0.712 0.15,-0.193 0.298,-0.374 0.445,-0.541 0.147,-0.167 0.3,-0.313 0.458,-0.438 0.159,-0.125 0.327,-0.224 0.505,-0.297 0.178,-0.072 0.374,-0.108 0.59,-0.108 0.228,0 0.418,0.049 0.57,0.148 0.152,0.099 0.274,0.235 0.366,0.409 0.092,0.173 0.164,0.381 0.214,0.623 0.051,0.241 0.091,0.507 0.122,0.797 0.026,0.247 0.052,0.49 0.076,0.732 0.024,0.242 0.071,0.458 0.142,0.65 0.07,0.191 0.171,0.346 0.303,0.464 0.132,0.119 0.321,0.178 0.567,0.178 0.189,0 0.387,-0.044 0.593,-0.131 0.207,-0.088 0.424,-0.21 0.653,-0.366 0.228,-0.156 0.465,-0.34 0.709,-0.551 0.244,-0.211 0.495,-0.442 0.754,-0.692 0.102,-0.097 0.213,-0.219 0.333,-0.366 0.121,-0.147 0.24,-0.289 0.356,-0.425 0.117,-0.136 0.226,-0.253 0.327,-0.35 0.101,-0.096 0.182,-0.145 0.244,-0.145 0.026,0 0.069,0.013 0.128,0.04 0.06,0.026 0.089,0.07 0.089,0.132 z"
   style="fill:#999999;fill-rule:nonzero"
   id="path3820" />
        </g>
        <g
   transform="translate(0.423027,0.207061)"
   id="g3826">
            <path
   inkscape:connector-curvature="0"
   d="m 155.063,13.454 c 0,0.065 -0.049,0.182 -0.146,0.349 -0.228,0.33 -0.484,0.659 -0.768,0.989 -0.283,0.329 -0.584,0.643 -0.903,0.939 -0.318,0.297 -0.65,0.574 -0.995,0.831 -0.345,0.257 -0.694,0.479 -1.045,0.666 -0.352,0.187 -0.702,0.331 -1.052,0.432 -0.349,0.101 -0.686,0.149 -1.012,0.145 -0.703,0 -1.249,-0.205 -1.638,-0.613 -0.389,-0.409 -0.583,-1.027 -0.583,-1.853 0,-0.69 0.106,-1.36 0.319,-2.011 0.213,-0.65 0.577,-1.277 1.091,-1.879 0.097,-0.105 0.206,-0.206 0.327,-0.303 0.121,-0.097 0.248,-0.182 0.382,-0.257 0.134,-0.075 0.273,-0.134 0.415,-0.178 0.143,-0.044 0.287,-0.07 0.432,-0.079 0.035,0 0.084,0.004 0.145,0.013 0.062,0.009 0.128,0.024 0.198,0.046 0.07,0.022 0.139,0.05 0.204,0.083 0.066,0.033 0.119,0.073 0.159,0.122 0.123,0.14 0.221,0.285 0.293,0.435 0.073,0.149 0.113,0.314 0.122,0.494 0.009,0.202 -0.014,0.401 -0.069,0.597 -0.055,0.195 -0.147,0.395 -0.277,0.6 -0.13,0.204 -0.3,0.415 -0.511,0.633 -0.211,0.217 -0.466,0.451 -0.765,0.702 -0.189,0.158 -0.399,0.333 -0.629,0.524 -0.231,0.191 -0.509,0.392 -0.834,0.603 0,0.426 0.128,0.751 0.385,0.973 0.257,0.221 0.61,0.332 1.058,0.332 0.251,0 0.504,-0.033 0.759,-0.098 0.255,-0.066 0.505,-0.153 0.751,-0.261 0.246,-0.108 0.485,-0.231 0.715,-0.369 0.231,-0.138 0.448,-0.28 0.65,-0.425 0.373,-0.273 0.712,-0.544 1.015,-0.814 0.303,-0.271 0.604,-0.555 0.903,-0.854 l 0.356,-0.356 c 0.216,-0.189 0.372,-0.284 0.468,-0.284 0.053,0 0.08,0.042 0.08,0.126 z m -5.037,-1.312 c -0.005,-0.066 -0.015,-0.131 -0.03,-0.195 -0.015,-0.064 -0.038,-0.12 -0.069,-0.168 -0.031,-0.048 -0.066,-0.087 -0.106,-0.115 -0.039,-0.029 -0.085,-0.043 -0.138,-0.043 -0.233,0.013 -0.466,0.155 -0.699,0.425 -0.233,0.27 -0.453,0.627 -0.659,1.071 -0.049,0.097 -0.091,0.206 -0.129,0.327 -0.037,0.121 -0.072,0.244 -0.105,0.369 -0.033,0.125 -0.062,0.249 -0.086,0.372 -0.024,0.123 -0.045,0.233 -0.063,0.33 0.229,-0.171 0.44,-0.33 0.633,-0.475 0.194,-0.145 0.374,-0.294 0.541,-0.448 0.105,-0.097 0.213,-0.201 0.323,-0.313 0.11,-0.112 0.21,-0.23 0.3,-0.353 0.09,-0.123 0.161,-0.25 0.214,-0.382 0.053,-0.132 0.077,-0.266 0.073,-0.402 z"
   style="fill:#999999;fill-rule:nonzero"
   id="path3824" />
        </g>
        <g
   transform="translate(0.423027,0.207061)"
   id="g3830">
            <path
   inkscape:connector-curvature="0"
   d="m 169.25,13.513 c 0,0.053 -0.007,0.115 -0.02,0.188 -0.013,0.072 -0.032,0.146 -0.056,0.221 -0.024,0.074 -0.05,0.146 -0.079,0.214 -0.028,0.068 -0.058,0.122 -0.089,0.161 -0.026,0.036 -0.065,0.083 -0.115,0.142 -0.051,0.059 -0.107,0.124 -0.168,0.195 -0.062,0.07 -0.129,0.144 -0.201,0.22 -0.073,0.077 -0.149,0.151 -0.228,0.221 -0.272,0.251 -0.539,0.494 -0.801,0.729 -0.261,0.235 -0.531,0.443 -0.808,0.623 -0.276,0.18 -0.565,0.324 -0.866,0.432 -0.302,0.107 -0.628,0.159 -0.979,0.155 -0.163,0 -0.327,-0.03 -0.492,-0.089 -0.164,-0.06 -0.319,-0.144 -0.464,-0.254 -0.145,-0.11 -0.271,-0.242 -0.376,-0.396 -0.106,-0.154 -0.18,-0.323 -0.224,-0.507 -0.128,0.131 -0.262,0.269 -0.403,0.412 -0.14,0.142 -0.286,0.286 -0.438,0.431 -0.152,0.145 -0.309,0.286 -0.471,0.422 -0.163,0.137 -0.33,0.262 -0.501,0.376 -0.097,0.062 -0.212,0.128 -0.346,0.198 -0.135,0.07 -0.275,0.135 -0.422,0.194 -0.148,0.06 -0.295,0.108 -0.442,0.145 -0.147,0.038 -0.28,0.057 -0.399,0.057 -0.18,0 -0.335,-0.057 -0.465,-0.169 -0.129,-0.112 -0.237,-0.249 -0.323,-0.412 -0.086,-0.162 -0.149,-0.336 -0.191,-0.52 -0.042,-0.185 -0.063,-0.35 -0.063,-0.495 0,-0.29 0.042,-0.587 0.126,-0.89 0.083,-0.303 0.192,-0.599 0.326,-0.887 0.134,-0.288 0.283,-0.561 0.448,-0.82 0.165,-0.26 0.327,-0.491 0.485,-0.693 0.167,-0.211 0.365,-0.421 0.593,-0.629 0.229,-0.209 0.466,-0.396 0.712,-0.561 0.246,-0.164 0.488,-0.297 0.725,-0.399 0.238,-0.101 0.449,-0.151 0.633,-0.151 h 0.294 c 0.103,0 0.205,0.005 0.306,0.016 0.101,0.011 0.2,0.029 0.297,0.053 0.097,0.024 0.185,0.06 0.264,0.109 0.039,0.026 0.085,0.077 0.138,0.151 0.053,0.075 0.102,0.159 0.148,0.251 0.047,0.092 0.085,0.185 0.116,0.277 0.031,0.092 0.046,0.165 0.046,0.217 0,0.145 -0.033,0.339 -0.099,0.581 -0.07,0.303 -0.135,0.579 -0.194,0.827 -0.06,0.248 -0.089,0.504 -0.089,0.768 0,0.149 0.024,0.302 0.072,0.458 0.048,0.156 0.118,0.298 0.208,0.425 0.09,0.128 0.2,0.232 0.329,0.314 0.13,0.081 0.276,0.122 0.439,0.122 0.268,0 0.543,-0.056 0.824,-0.169 0.281,-0.112 0.566,-0.265 0.854,-0.461 0.288,-0.196 0.574,-0.422 0.86,-0.679 0.286,-0.257 0.567,-0.531 0.844,-0.821 0.022,-0.026 0.06,-0.071 0.115,-0.135 0.055,-0.064 0.112,-0.127 0.172,-0.191 0.059,-0.064 0.117,-0.121 0.174,-0.172 0.057,-0.05 0.099,-0.075 0.126,-0.075 0.092,0 0.138,0.09 0.138,0.27 z m -5.867,-0.547 c 0,-0.075 -0.005,-0.167 -0.014,-0.277 -0.008,-0.11 -0.037,-0.2 -0.085,-0.271 -0.049,-0.07 -0.108,-0.104 -0.178,-0.102 -0.071,0.002 -0.141,0.004 -0.211,0.004 -0.154,0 -0.302,0.024 -0.445,0.072 -0.143,0.048 -0.283,0.115 -0.419,0.201 -0.136,0.086 -0.267,0.185 -0.392,0.297 -0.125,0.112 -0.247,0.23 -0.366,0.353 -0.101,0.101 -0.208,0.226 -0.32,0.375 -0.112,0.15 -0.222,0.314 -0.33,0.492 -0.107,0.178 -0.212,0.364 -0.313,0.56 -0.101,0.195 -0.189,0.389 -0.263,0.58 -0.075,0.191 -0.134,0.376 -0.178,0.554 -0.044,0.178 -0.066,0.339 -0.066,0.484 0,0.044 0.005,0.103 0.016,0.175 0.011,0.073 0.029,0.143 0.053,0.211 0.024,0.068 0.057,0.126 0.099,0.175 0.042,0.048 0.093,0.072 0.155,0.072 0.202,0 0.455,-0.063 0.758,-0.191 0.413,-0.176 0.788,-0.416 1.124,-0.722 0.336,-0.305 0.623,-0.658 0.86,-1.058 0.343,-0.62 0.515,-1.281 0.515,-1.984 z"
   style="fill:#999999;fill-rule:nonzero"
   id="path3828" />
        </g>
        <g
   transform="translate(0.423027,0.207061)"
   id="g3834">
            <path
   inkscape:connector-curvature="0"
   d="m 173.179,12.939 c -0.035,0.304 -0.063,0.64 -0.085,1.009 -0.022,0.369 -0.051,0.78 -0.086,1.233 -0.013,0.167 -0.031,0.356 -0.053,0.567 -0.022,0.211 -0.046,0.428 -0.072,0.652 -0.027,0.225 -0.053,0.445 -0.079,0.663 -0.027,0.218 -0.053,0.414 -0.08,0.59 -0.039,0.255 -0.09,0.52 -0.151,0.795 -0.062,0.274 -0.139,0.546 -0.231,0.814 -0.092,0.268 -0.205,0.523 -0.339,0.764 -0.135,0.242 -0.294,0.454 -0.478,0.637 -0.185,0.182 -0.399,0.327 -0.643,0.435 -0.244,0.107 -0.522,0.161 -0.834,0.161 -0.198,0 -0.398,-0.024 -0.6,-0.072 -0.202,-0.049 -0.401,-0.113 -0.597,-0.195 -0.195,-0.081 -0.384,-0.178 -0.567,-0.29 -0.182,-0.112 -0.35,-0.232 -0.504,-0.359 -0.172,-0.141 -0.323,-0.285 -0.455,-0.432 -0.132,-0.147 -0.242,-0.298 -0.33,-0.451 -0.088,-0.15 -0.132,-0.297 -0.132,-0.442 0,-0.136 0.044,-0.205 0.132,-0.205 0.031,0 0.064,0.016 0.099,0.047 0.018,0.013 0.039,0.033 0.063,0.059 0.024,0.026 0.047,0.052 0.069,0.076 0.022,0.024 0.042,0.046 0.059,0.066 0.018,0.019 0.029,0.032 0.033,0.036 0.849,0.782 1.754,1.173 2.717,1.173 0.32,0 0.583,-0.073 0.787,-0.22 0.205,-0.148 0.367,-0.339 0.488,-0.574 0.121,-0.235 0.213,-0.497 0.277,-0.785 0.064,-0.287 0.118,-0.572 0.162,-0.853 0.026,-0.176 0.049,-0.352 0.069,-0.528 0.02,-0.176 0.038,-0.359 0.056,-0.55 0.018,-0.191 0.035,-0.392 0.053,-0.603 0.017,-0.211 0.037,-0.44 0.059,-0.686 -0.18,0.193 -0.408,0.399 -0.682,0.616 -0.275,0.218 -0.569,0.419 -0.884,0.604 -0.314,0.184 -0.63,0.337 -0.949,0.458 -0.319,0.121 -0.612,0.181 -0.88,0.181 -0.114,0 -0.22,-0.026 -0.317,-0.079 -0.096,-0.053 -0.18,-0.129 -0.25,-0.228 -0.071,-0.098 -0.127,-0.219 -0.168,-0.362 -0.042,-0.143 -0.063,-0.302 -0.063,-0.478 0,-0.255 0.044,-0.527 0.132,-0.818 0.088,-0.29 0.2,-0.579 0.336,-0.867 0.136,-0.287 0.288,-0.566 0.455,-0.837 0.167,-0.27 0.33,-0.513 0.488,-0.728 0.158,-0.211 0.349,-0.432 0.573,-0.663 0.225,-0.231 0.465,-0.442 0.722,-0.633 0.257,-0.191 0.525,-0.348 0.801,-0.471 0.277,-0.123 0.548,-0.185 0.811,-0.185 0.233,0 0.451,0.052 0.653,0.155 0.202,0.103 0.358,0.258 0.468,0.465 0.026,0.048 0.042,0.12 0.046,0.214 0.005,0.095 0.002,0.202 -0.006,0.323 -0.009,0.121 -0.022,0.251 -0.04,0.389 -0.018,0.139 -0.035,0.276 -0.053,0.412 z m -1.081,1.2 c 0.018,-0.132 0.035,-0.291 0.053,-0.478 0.017,-0.187 0.039,-0.418 0.066,-0.695 0.013,-0.145 0.027,-0.29 0.043,-0.435 0.015,-0.145 0.01,-0.264 -0.017,-0.356 -0.035,-0.128 -0.103,-0.209 -0.204,-0.244 -0.101,-0.036 -0.266,-0.053 -0.495,-0.053 -0.211,0.132 -0.421,0.294 -0.629,0.488 -0.209,0.193 -0.409,0.402 -0.6,0.626 -0.191,0.224 -0.368,0.456 -0.531,0.696 -0.163,0.239 -0.305,0.473 -0.428,0.702 -0.137,0.25 -0.244,0.5 -0.323,0.748 -0.08,0.248 -0.119,0.458 -0.119,0.63 0,0.074 0.014,0.136 0.043,0.184 0.028,0.049 0.066,0.087 0.112,0.116 0.046,0.028 0.099,0.048 0.158,0.059 0.059,0.011 0.12,0.016 0.181,0.016 0.154,0 0.32,-0.033 0.498,-0.099 0.178,-0.065 0.355,-0.147 0.531,-0.243 0.176,-0.097 0.343,-0.199 0.501,-0.307 0.158,-0.108 0.294,-0.205 0.409,-0.293 0.048,-0.036 0.112,-0.09 0.191,-0.165 0.079,-0.075 0.158,-0.162 0.237,-0.261 0.079,-0.099 0.15,-0.203 0.211,-0.313 0.062,-0.11 0.099,-0.217 0.112,-0.323 z"
   style="fill:#999999;fill-rule:nonzero"
   id="path3832" />
        </g>
        <g
   transform="translate(0.423027,0.207061)"
   id="g3838">
            <path
   inkscape:connector-curvature="0"
   d="m 183.009,13.454 c 0,0.065 -0.048,0.182 -0.145,0.349 -0.229,0.33 -0.485,0.659 -0.768,0.989 -0.284,0.329 -0.585,0.643 -0.903,0.939 -0.319,0.297 -0.651,0.574 -0.996,0.831 -0.345,0.257 -0.693,0.479 -1.045,0.666 -0.351,0.187 -0.702,0.331 -1.051,0.432 -0.35,0.101 -0.687,0.149 -1.012,0.145 -0.703,0 -1.25,-0.205 -1.638,-0.613 -0.389,-0.409 -0.584,-1.027 -0.584,-1.853 0,-0.69 0.107,-1.36 0.32,-2.011 0.213,-0.65 0.577,-1.277 1.091,-1.879 0.097,-0.105 0.205,-0.206 0.326,-0.303 0.121,-0.097 0.249,-0.182 0.383,-0.257 0.134,-0.075 0.272,-0.134 0.415,-0.178 0.143,-0.044 0.287,-0.07 0.432,-0.079 0.035,0 0.083,0.004 0.145,0.013 0.061,0.009 0.127,0.024 0.198,0.046 0.07,0.022 0.138,0.05 0.204,0.083 0.066,0.033 0.119,0.073 0.158,0.122 0.123,0.14 0.221,0.285 0.294,0.435 0.072,0.149 0.113,0.314 0.122,0.494 0.008,0.202 -0.015,0.401 -0.07,0.597 -0.055,0.195 -0.147,0.395 -0.277,0.6 -0.129,0.204 -0.3,0.415 -0.511,0.633 -0.21,0.217 -0.465,0.451 -0.764,0.702 -0.189,0.158 -0.399,0.333 -0.63,0.524 -0.231,0.191 -0.509,0.392 -0.834,0.603 0,0.426 0.129,0.751 0.386,0.973 0.257,0.221 0.61,0.332 1.058,0.332 0.25,0 0.503,-0.033 0.758,-0.098 0.255,-0.066 0.506,-0.153 0.752,-0.261 0.246,-0.108 0.484,-0.231 0.715,-0.369 0.231,-0.138 0.447,-0.28 0.649,-0.425 0.374,-0.273 0.712,-0.544 1.016,-0.814 0.303,-0.271 0.604,-0.555 0.903,-0.854 l 0.356,-0.356 c 0.215,-0.189 0.371,-0.284 0.468,-0.284 0.053,0 0.079,0.042 0.079,0.126 z m -5.037,-1.312 c -0.004,-0.066 -0.014,-0.131 -0.029,-0.195 -0.016,-0.064 -0.039,-0.12 -0.07,-0.168 -0.03,-0.048 -0.066,-0.087 -0.105,-0.115 -0.04,-0.029 -0.086,-0.043 -0.139,-0.043 -0.233,0.013 -0.465,0.155 -0.698,0.425 -0.233,0.27 -0.453,0.627 -0.66,1.071 -0.048,0.097 -0.091,0.206 -0.128,0.327 -0.038,0.121 -0.073,0.244 -0.106,0.369 -0.033,0.125 -0.061,0.249 -0.085,0.372 -0.025,0.123 -0.045,0.233 -0.063,0.33 0.228,-0.171 0.439,-0.33 0.633,-0.475 0.193,-0.145 0.373,-0.294 0.54,-0.448 0.106,-0.097 0.214,-0.201 0.323,-0.313 0.11,-0.112 0.21,-0.23 0.3,-0.353 0.091,-0.123 0.162,-0.25 0.215,-0.382 0.052,-0.132 0.077,-0.266 0.072,-0.402 z"
   style="fill:#999999;fill-rule:nonzero"
   id="path3836" />
        </g>
        <g
   transform="translate(0.423027,0.207061)"
   id="g3842">
            <path
   inkscape:connector-curvature="0"
   d="m 193.366,13.289 c 0,0.083 -0.014,0.168 -0.043,0.254 -0.028,0.085 -0.063,0.171 -0.105,0.257 -0.042,0.085 -0.089,0.169 -0.142,0.25 -0.053,0.081 -0.103,0.16 -0.151,0.234 -0.128,0.198 -0.277,0.399 -0.449,0.603 -0.171,0.205 -0.355,0.404 -0.55,0.597 -0.196,0.193 -0.397,0.376 -0.604,0.547 -0.206,0.172 -0.408,0.323 -0.606,0.455 -0.158,0.106 -0.309,0.205 -0.452,0.297 -0.142,0.092 -0.286,0.171 -0.431,0.237 -0.146,0.066 -0.297,0.119 -0.455,0.158 -0.159,0.04 -0.332,0.06 -0.521,0.06 -0.365,0 -0.662,-0.093 -0.89,-0.277 -0.114,-0.092 -0.214,-0.212 -0.3,-0.359 -0.086,-0.148 -0.161,-0.311 -0.224,-0.492 -0.064,-0.18 -0.119,-0.371 -0.165,-0.573 -0.046,-0.202 -0.085,-0.402 -0.116,-0.6 -0.039,-0.246 -0.076,-0.467 -0.112,-0.663 -0.035,-0.195 -0.075,-0.36 -0.122,-0.494 -0.046,-0.134 -0.102,-0.237 -0.168,-0.31 -0.066,-0.073 -0.151,-0.109 -0.257,-0.109 -0.083,0 -0.162,0.009 -0.237,0.027 -0.075,0.017 -0.153,0.052 -0.234,0.105 -0.081,0.053 -0.17,0.128 -0.267,0.224 -0.097,0.097 -0.21,0.224 -0.34,0.383 -0.129,0.158 -0.278,0.351 -0.445,0.58 -0.167,0.228 -0.362,0.501 -0.586,0.817 -0.11,0.154 -0.24,0.323 -0.389,0.508 -0.15,0.185 -0.303,0.36 -0.459,0.527 -0.156,0.167 -0.308,0.315 -0.458,0.442 -0.149,0.128 -0.281,0.209 -0.395,0.244 -0.387,-0.084 -0.581,-0.565 -0.581,-1.444 0,-0.233 0.027,-0.587 0.08,-1.061 0.026,-0.216 0.057,-0.441 0.092,-0.676 0.035,-0.235 0.079,-0.47 0.132,-0.705 0.052,-0.236 0.113,-0.464 0.181,-0.686 0.068,-0.222 0.148,-0.427 0.241,-0.616 0.044,-0.088 0.09,-0.158 0.138,-0.208 0.048,-0.051 0.098,-0.088 0.148,-0.112 0.051,-0.024 0.104,-0.04 0.159,-0.046 0.055,-0.007 0.111,-0.01 0.168,-0.01 0.07,0 0.133,0.048 0.188,0.145 0.055,0.096 0.082,0.231 0.082,0.402 0,0.105 -0.009,0.204 -0.026,0.297 -0.018,0.092 -0.042,0.186 -0.073,0.283 -0.031,0.097 -0.064,0.201 -0.099,0.313 -0.035,0.112 -0.07,0.241 -0.105,0.386 -0.027,0.119 -0.056,0.25 -0.089,0.395 -0.033,0.146 -0.064,0.293 -0.092,0.442 -0.029,0.15 -0.053,0.296 -0.073,0.439 -0.02,0.142 -0.03,0.271 -0.03,0.385 0,0.079 0.014,0.161 0.04,0.244 0.123,-0.013 0.325,-0.198 0.606,-0.554 0.145,-0.18 0.305,-0.378 0.478,-0.593 0.174,-0.215 0.362,-0.453 0.564,-0.712 0.149,-0.193 0.298,-0.374 0.445,-0.541 0.147,-0.167 0.3,-0.313 0.458,-0.438 0.158,-0.125 0.327,-0.224 0.505,-0.297 0.178,-0.072 0.374,-0.108 0.59,-0.108 0.228,0 0.418,0.049 0.57,0.148 0.152,0.099 0.274,0.235 0.366,0.409 0.092,0.173 0.164,0.381 0.214,0.623 0.051,0.241 0.091,0.507 0.122,0.797 0.026,0.247 0.052,0.49 0.076,0.732 0.024,0.242 0.071,0.458 0.142,0.65 0.07,0.191 0.171,0.346 0.303,0.464 0.132,0.119 0.321,0.178 0.567,0.178 0.189,0 0.387,-0.044 0.593,-0.131 0.207,-0.088 0.424,-0.21 0.653,-0.366 0.228,-0.156 0.465,-0.34 0.709,-0.551 0.244,-0.211 0.495,-0.442 0.754,-0.692 0.102,-0.097 0.213,-0.219 0.333,-0.366 0.121,-0.147 0.24,-0.289 0.356,-0.425 0.117,-0.136 0.226,-0.253 0.327,-0.35 0.101,-0.096 0.182,-0.145 0.244,-0.145 0.026,0 0.069,0.013 0.128,0.04 0.06,0.026 0.089,0.07 0.089,0.132 z"
   style="fill:#999999;fill-rule:nonzero"
   id="path3840" />
        </g>
        <g
   transform="translate(0.423027,0.207061)"
   id="g3846">
            <path
   inkscape:connector-curvature="0"
   d="m 200.5,13.467 c 0,0.158 -0.058,0.301 -0.172,0.428 -0.039,0.044 -0.101,0.102 -0.184,0.175 -0.084,0.072 -0.159,0.142 -0.225,0.208 l -0.606,0.606 c -0.114,0.114 -0.221,0.217 -0.32,0.307 -0.099,0.09 -0.186,0.168 -0.26,0.234 -0.128,0.105 -0.281,0.232 -0.459,0.379 -0.178,0.147 -0.383,0.317 -0.616,0.511 -0.457,0.378 -0.879,0.688 -1.266,0.929 -0.386,0.238 -0.801,0.428 -1.242,0.571 -0.442,0.142 -0.909,0.214 -1.401,0.214 -0.304,0.009 -0.575,-0.044 -0.815,-0.158 -0.239,-0.115 -0.441,-0.27 -0.606,-0.465 -0.165,-0.196 -0.29,-0.425 -0.376,-0.689 -0.086,-0.264 -0.126,-0.543 -0.122,-0.837 0,-0.585 0.124,-1.169 0.373,-1.754 0.248,-0.585 0.579,-1.16 0.992,-1.727 0.224,-0.299 0.494,-0.585 0.811,-0.857 0.312,-0.273 0.595,-0.409 0.85,-0.409 0.136,0 0.292,0.114 0.468,0.343 0.088,0.114 0.172,0.236 0.251,0.366 0.079,0.129 0.151,0.267 0.217,0.412 0.132,0.285 0.198,0.492 0.198,0.619 0,0.128 -0.039,0.293 -0.119,0.495 -0.079,0.202 -0.173,0.303 -0.283,0.303 -0.158,0 -0.29,-0.108 -0.396,-0.323 -0.052,-0.11 -0.091,-0.203 -0.115,-0.28 -0.024,-0.077 -0.052,-0.159 -0.082,-0.247 -0.101,-0.264 -0.187,-0.453 -0.257,-0.567 -0.291,0.052 -0.532,0.195 -0.726,0.428 -0.092,0.114 -0.188,0.252 -0.286,0.412 -0.099,0.161 -0.204,0.342 -0.314,0.544 -0.088,0.158 -0.169,0.336 -0.244,0.534 -0.074,0.198 -0.138,0.401 -0.191,0.61 -0.052,0.209 -0.094,0.418 -0.125,0.626 -0.031,0.209 -0.046,0.404 -0.046,0.584 0,0.255 0.11,0.503 0.329,0.745 0.225,0.233 0.466,0.349 0.726,0.349 0.562,0 1.096,-0.099 1.602,-0.297 0.505,-0.197 0.991,-0.461 1.457,-0.791 0.461,-0.321 0.929,-0.696 1.404,-1.127 0.237,-0.215 0.463,-0.419 0.676,-0.61 0.213,-0.191 0.416,-0.375 0.61,-0.55 0.32,-0.282 0.586,-0.422 0.797,-0.422 0.062,0 0.093,0.059 0.093,0.178 z"
   style="fill:#999999;fill-rule:nonzero"
   id="path3844" />
        </g>
        <g
   transform="translate(0.423027,0.207061)"
   id="g3850">
            <path
   inkscape:connector-curvature="0"
   d="m 205.939,12.115 c 0,0.075 -0.003,0.162 -0.007,0.261 -0.004,0.099 -0.011,0.212 -0.02,0.339 -0.009,0.123 -0.019,0.251 -0.03,0.383 -0.01,0.131 -0.023,0.268 -0.036,0.408 -0.013,0.141 -0.024,0.265 -0.033,0.373 -0.009,0.107 -0.015,0.199 -0.02,0.273 -0.03,0.603 -0.094,1.221 -0.191,1.856 -0.096,0.635 -0.217,1.241 -0.362,1.817 -0.233,0.953 -0.572,1.769 -1.016,2.445 -0.448,0.686 -1.068,1.029 -1.859,1.029 -0.518,0 -1.041,-0.103 -1.569,-0.31 -0.523,-0.202 -0.965,-0.486 -1.325,-0.85 -0.215,-0.255 -0.323,-0.431 -0.323,-0.528 0,-0.11 0.033,-0.235 0.099,-0.376 0.07,-0.136 0.149,-0.204 0.237,-0.204 0.049,0 0.09,0.026 0.126,0.079 0.149,0.211 0.292,0.378 0.428,0.501 0.585,0.519 1.345,0.778 2.281,0.778 0.369,0 0.692,-0.176 0.969,-0.527 0.141,-0.172 0.265,-0.356 0.373,-0.554 0.107,-0.198 0.203,-0.404 0.287,-0.62 0.083,-0.215 0.158,-0.435 0.224,-0.659 0.066,-0.224 0.125,-0.453 0.178,-0.686 0.044,-0.215 0.078,-0.387 0.102,-0.514 0.024,-0.127 0.038,-0.213 0.043,-0.257 0.022,-0.185 0.037,-0.363 0.046,-0.534 0.009,-0.172 0.026,-0.341 0.053,-0.508 -0.123,0.057 -0.376,0.202 -0.759,0.435 -0.224,0.137 -0.428,0.26 -0.613,0.37 -0.184,0.109 -0.349,0.206 -0.494,0.29 -0.29,0.171 -0.618,0.334 -0.982,0.487 -0.37,0.154 -0.673,0.231 -0.91,0.231 -0.413,0 -0.732,-0.165 -0.956,-0.494 -0.224,-0.33 -0.336,-0.71 -0.336,-1.141 0,-0.307 0.033,-0.65 0.098,-1.028 0.036,-0.189 0.072,-0.366 0.109,-0.531 0.038,-0.165 0.078,-0.32 0.122,-0.465 0.044,-0.145 0.096,-0.318 0.155,-0.521 0.059,-0.202 0.131,-0.435 0.214,-0.698 0.044,-0.145 0.093,-0.272 0.145,-0.379 0.053,-0.108 0.114,-0.198 0.182,-0.271 0.068,-0.072 0.148,-0.126 0.24,-0.161 0.093,-0.035 0.205,-0.053 0.337,-0.053 0.127,0 0.228,0.073 0.303,0.218 0.07,0.136 0.105,0.276 0.105,0.421 0,0.088 -0.019,0.167 -0.059,0.238 -0.022,0.035 -0.053,0.086 -0.092,0.151 -0.04,0.066 -0.09,0.148 -0.152,0.244 -0.061,0.097 -0.11,0.177 -0.145,0.241 -0.035,0.064 -0.057,0.113 -0.066,0.148 -0.035,0.106 -0.066,0.198 -0.092,0.277 -0.027,0.079 -0.051,0.145 -0.073,0.198 -0.017,0.053 -0.037,0.115 -0.059,0.188 -0.022,0.072 -0.048,0.157 -0.079,0.254 -0.057,0.189 -0.098,0.361 -0.122,0.517 -0.024,0.156 -0.036,0.322 -0.036,0.498 0,0.176 0.035,0.389 0.105,0.64 0.075,0.259 0.176,0.388 0.303,0.388 0.387,0 0.855,-0.112 1.405,-0.336 0.549,-0.228 1.046,-0.525 1.49,-0.89 0.444,-0.365 0.712,-0.732 0.804,-1.101 0.017,-0.052 0.031,-0.132 0.039,-0.237 0.009,-0.106 0.017,-0.223 0.024,-0.353 0.006,-0.129 0.012,-0.265 0.016,-0.405 0.004,-0.141 0.01,-0.276 0.017,-0.406 0.006,-0.129 0.014,-0.246 0.023,-0.349 0.008,-0.103 0.022,-0.181 0.039,-0.234 0.114,-0.405 0.299,-0.607 0.554,-0.607 0.242,0 0.391,0.062 0.448,0.185 0.062,0.132 0.093,0.341 0.093,0.626 z"
   style="fill:#999999;fill-rule:nonzero"
   id="path3848" />
        </g>
        <g
   transform="translate(0.423027,0.207061)"
   id="g3854">
            <path
   inkscape:connector-curvature="0"
   d="M 1.005,1.248 C 0.974,1.188 0.903,1.123 0.789,1.055 0.675,0.987 0.573,0.952 0.482,0.952 h 4.229 c 0.197,0 0.356,0.099 0.477,0.296 0,0.015 0.019,0.076 0.057,0.182 0.038,0.106 0.057,0.182 0.057,0.227 L 5.416,12.934 11.031,0.952 h 4.115 l 0.113,12.05 4.752,-10.867 C 20.193,1.741 20.253,1.483 20.193,1.362 20.162,1.256 20.132,1.188 20.102,1.157 20.071,1.127 20.015,1.1 19.931,1.078 19.848,1.055 19.761,1.013 19.67,0.952 h 3.887 c 0.122,0 0.224,0.027 0.308,0.08 0.083,0.053 0.139,0.106 0.17,0.159 0.03,0.054 0.045,0.095 0.045,0.125 0.061,0.121 0.099,0.22 0.114,0.296 0.015,0.076 0.023,0.129 0.023,0.159 0,0.031 -0.019,0.083 -0.057,0.159 -0.038,0.076 -0.065,0.144 -0.08,0.205 L 16.192,19.14 h -3.933 c -0.182,0.06 -0.379,-0.015 -0.592,-0.228 -0.06,-0.06 -0.121,-0.136 -0.182,-0.227 -0.06,-0.091 -0.106,-0.166 -0.136,-0.227 L 11.326,18.367 11.258,7.864 5.984,19.14 2.051,19.208 C 1.96,19.208 1.854,19.159 1.732,19.06 1.611,18.962 1.543,18.912 1.528,18.912 1.437,18.852 1.361,18.67 1.301,18.367 L 1.232,1.771 C 1.232,1.68 1.156,1.506 1.005,1.248"
   style="fill:#999999;fill-rule:nonzero"
   id="path3852" />
        </g>
        <g
   transform="translate(0.423027,0.207061)"
   id="g3858">
            <path
   inkscape:connector-curvature="0"
   d="m 27.17,16.519 c 0.289,-0.161 0.515,-0.359 0.676,-0.596 l -0.596,2.416 c -0.096,0.214 -0.257,0.402 -0.483,0.563 -0.193,0.129 -0.488,0.215 -0.885,0.258 h -3.35 c -0.945,-0.065 -1.567,-0.231 -1.868,-0.499 -0.408,-0.387 -0.636,-1.071 -0.684,-2.053 -0.048,-0.983 0.048,-1.986 0.29,-3.011 0.241,-1.026 0.582,-1.976 1.022,-2.851 0.44,-0.875 0.891,-1.419 1.353,-1.634 0.504,-0.215 1.459,-0.317 2.866,-0.306 1.406,0.011 2.335,0.112 2.786,0.306 0.311,0.15 0.542,0.408 0.692,0.773 0.151,0.365 0.231,0.738 0.242,1.119 0.01,0.381 -0.016,0.803 -0.081,1.264 -0.064,0.462 -0.129,0.813 -0.193,1.055 -0.064,0.241 -0.124,0.453 -0.177,0.636 -0.032,0.225 -0.29,0.338 -0.773,0.338 h -5.282 c 0.086,-0.344 0.151,-0.617 0.193,-0.821 l 0.242,-0.838 h 3.607 c 0.075,-0.343 0.118,-0.665 0.129,-0.966 0.011,-0.3 -0.113,-0.55 -0.37,-0.749 -0.258,-0.198 -0.65,-0.298 -1.176,-0.298 -0.215,0 -0.411,0.022 -0.588,0.065 -0.177,0.043 -0.327,0.086 -0.45,0.129 -0.124,0.043 -0.242,0.131 -0.355,0.265 -0.112,0.135 -0.201,0.239 -0.266,0.314 -0.064,0.076 -0.139,0.221 -0.225,0.435 -0.086,0.215 -0.145,0.373 -0.177,0.475 -0.032,0.103 -0.094,0.298 -0.185,0.588 -0.092,0.29 -0.159,0.499 -0.201,0.628 -0.28,1.396 -0.409,2.244 -0.387,2.544 0.021,0.172 0.065,0.301 0.129,0.387 0.129,0.203 0.483,0.306 1.063,0.306 h 1.964 c 0.408,0 0.701,-0.014 0.878,-0.041 0.177,-0.026 0.383,-0.093 0.62,-0.201"
   style="fill:#999999;fill-rule:nonzero"
   id="path3856" />
        </g>
        <g
   transform="translate(0.423027,0.207061)"
   id="g3862">
            <path
   inkscape:connector-curvature="0"
   d="M 31.323,6.455 C 31.312,6.412 31.261,6.366 31.17,6.318 31.078,6.27 31.011,6.245 30.968,6.245 h 3.011 c 0.162,0 0.258,0.006 0.29,0.017 0.054,0.096 0.059,0.214 0.016,0.354 l -2.56,10.386 h 1.659 c 0.29,0 0.633,-0.118 1.03,-0.354 l 0.29,-0.145 c 0.086,-0.043 0.166,-0.097 0.242,-0.161 0.075,-0.065 0.136,-0.121 0.185,-0.169 0.048,-0.048 0.099,-0.121 0.153,-0.218 0.053,-0.096 0.094,-0.174 0.121,-0.233 0.026,-0.059 0.061,-0.158 0.104,-0.298 0.043,-0.139 0.078,-0.252 0.105,-0.338 0.027,-0.086 0.067,-0.228 0.121,-0.427 0.053,-0.198 0.096,-0.362 0.129,-0.491 0.504,-1.61 0.531,-2.619 0.08,-3.027 -0.161,-0.161 -0.408,-0.242 -0.741,-0.242 h -1.014 c -0.118,0.022 -0.242,0.051 -0.37,0.089 -0.129,0.038 -0.226,0.062 -0.29,0.072 -0.151,0.064 -0.264,0.153 -0.338,0.266 -0.076,0.113 -0.161,0.293 -0.258,0.539 l 0.403,-1.497 0.643,-1.127 c 0.075,-0.097 0.127,-0.188 0.154,-0.274 0.026,-0.086 0.056,-0.134 0.088,-0.145 0.097,-0.054 0.252,-0.081 0.467,-0.081 h 2.061 c 0.333,0 0.701,0.111 1.103,0.331 0.403,0.22 0.722,0.555 0.958,1.006 0.129,0.29 0.196,0.698 0.202,1.224 0.005,0.526 -0.073,1.151 -0.234,1.876 -0.161,0.724 -0.354,1.43 -0.579,2.117 -0.226,0.687 -0.508,1.337 -0.846,1.949 -0.338,0.612 -0.684,1.068 -1.038,1.368 -0.473,0.366 -1.063,0.548 -1.772,0.548 H 29.406 C 29.052,19.138 28.843,19.069 28.778,18.951 28.682,18.79 28.634,18.65 28.634,18.532 L 31.435,6.858 C 31.489,6.697 31.451,6.562 31.323,6.455"
   style="fill:#999999;fill-rule:nonzero"
   id="path3860" />
        </g>
        <g
   transform="translate(0.423027,0.207061)"
   id="g3866">
            <path
   inkscape:connector-curvature="0"
   d="m 47.538,8.774 -0.274,1.191 c -0.043,0.14 -0.129,0.242 -0.257,0.306 -0.119,0.086 -0.285,0.129 -0.5,0.129 h -2.093 c -0.086,0.011 -0.207,0.019 -0.362,0.024 -0.156,0.006 -0.28,0.014 -0.371,0.024 -0.091,0.011 -0.193,0.038 -0.305,0.081 -0.113,0.043 -0.208,0.115 -0.282,0.217 -0.075,0.103 -0.14,0.234 -0.194,0.395 -0.01,0.032 -0.035,0.121 -0.072,0.266 -0.038,0.144 -0.059,0.244 -0.064,0.297 -0.006,0.054 -0.006,0.137 0,0.25 0.005,0.113 0.032,0.196 0.08,0.249 0.049,0.054 0.126,0.119 0.234,0.194 0.107,0.075 0.247,0.139 0.418,0.193 0.075,0.022 0.258,0.062 0.548,0.121 0.29,0.059 0.52,0.115 0.692,0.169 0.172,0.054 0.384,0.123 0.636,0.209 0.252,0.086 0.475,0.194 0.668,0.322 0.194,0.129 0.365,0.28 0.516,0.451 0.161,0.172 0.255,0.47 0.282,0.894 0.026,0.424 0,0.864 -0.081,1.32 -0.081,0.456 -0.22,0.905 -0.419,1.345 -0.198,0.44 -0.421,0.762 -0.668,0.966 -0.633,0.515 -1.326,0.773 -2.077,0.773 h -4.895 c -0.086,0 -0.178,-0.027 -0.274,-0.081 -0.097,-0.053 -0.15,-0.107 -0.161,-0.161 -0.064,-0.214 -0.075,-0.375 -0.032,-0.483 l 0.515,-1.771 h 0.129 c -0.043,0.161 -0.016,0.344 0.08,0.547 0.011,0.022 0.024,0.043 0.041,0.065 0.016,0.022 0.037,0.04 0.064,0.056 0.027,0.016 0.051,0.03 0.073,0.04 0.021,0.011 0.05,0.02 0.088,0.025 0.037,0.005 0.07,0.01 0.097,0.016 0.026,0.005 0.067,0.008 0.12,0.008 h 0.451 c 1.772,0.043 2.872,-0.016 3.301,-0.177 0.451,-0.172 0.736,-0.634 0.854,-1.385 0.042,-0.29 -0.073,-0.521 -0.346,-0.692 -0.274,-0.172 -0.62,-0.307 -1.039,-0.403 -0.419,-0.097 -0.837,-0.202 -1.256,-0.314 -0.419,-0.113 -0.77,-0.306 -1.055,-0.58 -0.284,-0.273 -0.411,-0.63 -0.378,-1.071 0.032,-0.343 0.059,-0.609 0.08,-0.797 0.022,-0.187 0.07,-0.429 0.145,-0.724 0.075,-0.296 0.185,-0.572 0.33,-0.83 0.145,-0.257 0.33,-0.504 0.556,-0.741 C 41.252,9.461 41.51,9.238 41.854,9.039 42.197,8.841 42.6,8.752 43.061,8.774 Z"
   style="fill:#999999;fill-rule:nonzero"
   id="path3864" />
        </g>
        <g
   transform="translate(0.423027,0.207061)"
   id="g3870">
            <path
   inkscape:connector-curvature="0"
   d="m 49.776,7.872 0.258,-1.465 h 1.932 c 0.183,0 0.295,0.008 0.338,0.024 0.043,0.016 0.091,0.056 0.145,0.12 0,0.011 0.019,0.065 0.057,0.162 0.037,0.096 0.056,0.166 0.056,0.209 L 52.256,8.258 H 50.388 C 50.12,8.258 49.959,8.216 49.905,8.13 49.905,8.108 49.883,8.068 49.84,8.009 49.797,7.95 49.776,7.904 49.776,7.872 M 49.293,9.16 C 49.186,8.978 49.073,8.87 48.955,8.838 h 2.689 c 0.054,0 0.124,0.024 0.209,0.072 0.086,0.049 0.14,0.094 0.161,0.138 0.086,0.096 0.118,0.236 0.097,0.418 l -1.981,8.792 c -0.021,0.333 -0.021,0.532 0,0.596 0.162,0.204 0.312,0.306 0.451,0.306 h -2.512 c -0.204,0 -0.349,-0.07 -0.435,-0.21 -0.074,-0.086 -0.112,-0.252 -0.112,-0.498 l 1.932,-8.567 c 0,-0.268 -0.054,-0.51 -0.161,-0.725"
   style="fill:#999999;fill-rule:nonzero"
   id="path3868" />
        </g>
        <g
   transform="translate(0.423027,0.207061)"
   id="g3874">
            <path
   inkscape:connector-curvature="0"
   d="m 73.893,16.519 c 0.29,-0.161 0.515,-0.359 0.676,-0.596 l -0.595,2.416 c -0.097,0.214 -0.258,0.402 -0.484,0.563 -0.193,0.129 -0.489,0.215 -0.885,0.258 h -3.35 c -0.944,-0.065 -1.567,-0.231 -1.867,-0.499 -0.408,-0.387 -0.637,-1.071 -0.685,-2.053 -0.048,-0.983 0.048,-1.986 0.29,-3.011 0.242,-1.026 0.582,-1.976 1.022,-2.851 0.44,-0.875 0.892,-1.419 1.353,-1.634 0.504,-0.215 1.46,-0.317 2.866,-0.306 1.407,0.011 2.335,0.112 2.786,0.306 0.311,0.15 0.542,0.408 0.692,0.773 0.151,0.365 0.231,0.738 0.242,1.119 0.011,0.381 -0.016,0.803 -0.08,1.264 -0.065,0.462 -0.129,0.813 -0.193,1.055 -0.065,0.241 -0.124,0.453 -0.178,0.636 -0.032,0.225 -0.29,0.338 -0.773,0.338 h -5.281 c 0.086,-0.344 0.15,-0.617 0.193,-0.821 l 0.241,-0.838 h 3.607 c 0.075,-0.343 0.118,-0.665 0.129,-0.966 0.011,-0.3 -0.112,-0.55 -0.37,-0.749 -0.258,-0.198 -0.65,-0.298 -1.175,-0.298 -0.216,0 -0.411,0.022 -0.588,0.065 -0.178,0.043 -0.328,0.086 -0.451,0.129 -0.124,0.043 -0.242,0.131 -0.354,0.265 -0.113,0.135 -0.202,0.239 -0.266,0.314 -0.065,0.076 -0.14,0.221 -0.226,0.435 -0.086,0.215 -0.145,0.373 -0.177,0.475 -0.032,0.103 -0.094,0.298 -0.185,0.588 -0.091,0.29 -0.158,0.499 -0.202,0.628 -0.279,1.396 -0.407,2.244 -0.385,2.544 0.021,0.172 0.064,0.301 0.128,0.387 0.129,0.203 0.483,0.306 1.063,0.306 h 1.964 c 0.408,0 0.701,-0.014 0.878,-0.041 0.177,-0.026 0.384,-0.093 0.62,-0.201"
   style="fill:#999999;fill-rule:nonzero"
   id="path3872" />
        </g>
        <g
   transform="translate(0.423027,0.207061)"
   id="g3878">
            <path
   inkscape:connector-curvature="0"
   d="M 60.226,9.249 C 59.434,9.249 59.04,8.992 58.594,8.64 58.151,8.287 58.013,7.711 58.089,7.039 L 57.236,7.038 56.738,8.926 54.408,8.924 53.772,10.54 c -0.026,0.192 0.031,0.304 0.15,0.384 0.088,0.112 0.244,0.144 0.447,0.144 l 1.319,0.002 c 0.251,0.033 0.374,0.032 0.431,0.112 0.096,0.128 0.051,0.225 10e-4,0.432 l -1.144,4.88 c -0.066,0.144 -0.162,0.352 -0.238,0.416 -0.097,0.144 -0.318,0.319 -0.52,0.319 l -1.677,-10e-4 c -0.186,-0.001 -0.263,-0.24 -0.366,-0.321 -0.064,-0.063 -0.155,-0.304 -0.114,-0.495 l -0.539,2.351 c -0.02,0.144 0.009,0.384 0.127,0.4 0.078,0.033 0.22,0.129 0.422,0.129 l 4.008,0.004 c 0.155,0 0.371,-0.128 0.485,-0.208 0.191,-0.112 0.425,-0.351 0.528,-0.576 l 1.812,-7.439 0.911,0.002 z"
   style="fill:#999999;fill-rule:nonzero"
   id="path3876" />
        </g>
        <g
   transform="translate(0.423027,0.207061)"
   id="g3882">
            <path
   inkscape:connector-curvature="0"
   d="m 60.525,9.239 c 0.817,0 1.345,-0.255 1.968,-0.607 0.625,-0.353 1.041,-0.929 1.281,-1.601 h 0.88 L 64.27,8.919 h 2.4 l -0.111,1.617 c -0.065,0.191 -0.177,0.304 -0.336,0.383 -0.145,0.112 -0.32,0.145 -0.529,0.145 h -1.36 c -0.272,0.032 -0.401,0.032 -0.496,0.112 -0.16,0.128 -0.16,0.224 -0.208,0.432 l -1.137,4.881 c 0,0.144 0,0.352 0.048,0.416 0.033,0.144 0.176,0.319 0.385,0.319 h 1.728 c 0.192,0 0.384,-0.239 0.528,-0.319 0.096,-0.064 0.304,-0.304 0.352,-0.496 l -0.56,2.352 c -0.048,0.144 -0.192,0.384 -0.32,0.4 -0.095,0.032 -0.288,0.128 -0.496,0.128 h -4.129 c -0.159,0 -0.32,-0.128 -0.4,-0.208 -0.144,-0.112 -0.272,-0.352 -0.272,-0.576 l 1.664,-7.441 -0.905,10e-4 z"
   style="fill:#999999;fill-rule:nonzero"
   id="path3880" />
        </g>
    </g></svg>